<?xml version="1.0" encoding="UTF-8"?>
<svg width="229px" height="149px" viewBox="0 0 229 149" version="1.1" xmlns="http://www.w3.org/2000/svg" xmlns:xlink="http://www.w3.org/1999/xlink">
    <!-- Generator: Sketch 40.3 (33839) - http://www.bohemiancoding.com/sketch -->
    <title>Illustration_2</title>
    <desc>Created with Sketch.</desc>
    <defs>
        <polygon id="path-1" points="32.7521799 0.83 0.278474375 0.83 0.278474375 6.7133 32.7521799 6.7133"></polygon>
    </defs>
    <g id="Page-1" stroke="none" stroke-width="1" fill="none" fill-rule="evenodd">
        <g id="Illustration_2" transform="translate(0.000000, -1.000000)">
            <g id="Page-1">
                <g id="Illustration_2">
                    <g id="Page-1">
                        <path d="M171.4802,135.5004 C160.3202,143.1404 146.4402,147.6704 131.3802,147.6704 C94.5602,147.6704 64.7102,120.5804 64.7102,87.1704 C64.7102,53.7604 94.5602,26.6704 131.3802,26.6704 C168.2002,26.6704 198.0502,53.7604 198.0502,87.1704 C198.0502,100.7004 193.1502,113.1904 184.8802,123.2704 C182.9102,129.0104 184.4002,135.3504 188.6102,139.6304 C189.6002,140.6404 190.7202,141.5404 192.0102,142.2904 C184.3702,145.7204 175.4902,142.6804 171.4802,135.5004" id="Fill-1" fill="#E8EDF1"></path>
                        <path d="M171.4814,137.0001 C171.0024,137.0001 170.5334,136.7711 170.2424,136.3471 C169.7744,135.6631 169.9504,134.7291 170.6334,134.2621 C171.1934,133.8791 171.5074,133.6801 171.7414,133.5311 C172.1224,133.2881 172.2374,133.2161 173.1014,132.5091 C173.7424,131.9851 174.6874,132.0791 175.2114,132.7211 C175.7364,133.3611 175.6414,134.3071 175.0004,134.8311 C174.0444,135.6131 173.8424,135.7501 173.3504,136.0631 C173.1344,136.2001 172.8444,136.3841 172.3274,136.7381 C172.0684,136.9151 171.7734,137.0001 171.4814,137.0001" id="Fill-3" fill="#444E58"></path>
                        <path d="M131.3799,149.17 C93.7909,149.17 63.2099,121.356 63.2099,87.17 C63.2099,52.984 93.7909,25.17 131.3799,25.17 C168.9699,25.17 199.5509,52.984 199.5509,87.17 C199.5509,100.637 194.8789,113.449 186.0389,124.222 C185.5149,124.861 184.5679,124.956 183.9289,124.43 C183.2879,123.904 183.1939,122.96 183.7209,122.32 C192.1139,112.089 196.5509,99.935 196.5509,87.17 C196.5509,54.637 167.3159,28.17 131.3799,28.17 C95.4459,28.17 66.2099,54.637 66.2099,87.17 C66.2099,119.703 95.4459,146.17 131.3799,146.17 C145.6809,146.17 159.2549,142.053 170.6329,134.263 C171.3169,133.794 172.2499,133.97 172.7179,134.652 C173.1869,135.336 173.0119,136.269 172.3279,136.737 C160.4489,144.871 146.2889,149.17 131.3799,149.17" id="Fill-5" fill="#444E58"></path>
                        <path d="M185.3926,145.2198 C179.2456,145.2198 173.3706,141.9588 170.1706,136.2318 C169.7666,135.5078 170.0256,134.5948 170.7486,134.1908 C171.4716,133.7898 172.3866,134.0438 172.7896,134.7688 C176.4836,141.3798 184.4846,144.0258 191.3966,140.9218 C192.1516,140.5798 193.0406,140.9198 193.3786,141.6758 C193.7186,142.4318 193.3806,143.3198 192.6246,143.6578 C190.2696,144.7158 187.8096,145.2198 185.3926,145.2198" id="Fill-7" fill="#444E58"></path>
                        <path d="M192.0098,143.7901 C191.7528,143.7901 191.4938,143.7251 191.2568,143.5871 C189.9158,142.8081 188.6648,141.8291 187.5388,140.6801 C186.9588,140.0881 186.9688,139.1381 187.5608,138.5591 C188.1528,137.9791 189.1018,137.9891 189.6818,138.5801 C190.6328,139.5511 191.6418,140.3401 192.7648,140.9931 C193.4808,141.4091 193.7238,142.3281 193.3078,143.0441 C193.0298,143.5221 192.5268,143.7901 192.0098,143.7901" id="Fill-9" fill="#444E58"></path>
                        <path d="M188.6104,141.13 C188.2224,141.13 187.8354,140.981 187.5414,140.682 C182.9374,136.002 181.3364,128.977 183.4614,122.783 C183.7304,122 184.5774,121.58 185.3674,121.852 C186.1504,122.121 186.5674,122.974 186.2984,123.758 C184.5394,128.885 185.8664,134.702 189.6794,138.578 C190.2604,139.169 190.2534,140.118 189.6624,140.699 C189.3704,140.986 188.9904,141.13 188.6104,141.13" id="Fill-11" fill="#444E58"></path>
                        <path d="M146.0509,88.4201 L145.3499,88.4201 C145.0909,88.8681 144.6059,89.1701 144.0509,89.1701 L135.7519,89.1701 C135.6239,89.3911 135.5509,89.6471 135.5509,89.9201 C135.5509,90.7481 136.2229,91.4201 137.0509,91.4201 L146.0509,91.4201 C146.8789,91.4201 147.5509,90.7481 147.5509,89.9201 C147.5509,89.0921 146.8789,88.4201 146.0509,88.4201" id="Fill-13" fill="#E3E8EC"></path>
                        <path d="M152.0404,88.4234 C151.9454,88.4234 151.8504,88.4324 151.7564,88.4494 C151.6564,88.4684 151.5664,88.4994 151.4764,88.5284 L151.2174,88.6684 L150.9864,88.8584 C150.7074,89.1384 150.5464,89.5284 150.5464,89.9194 C150.5464,90.1194 150.5874,90.3084 150.6664,90.4994 C150.7364,90.6784 150.8464,90.8394 150.9864,90.9784 C151.1274,91.1194 151.2964,91.2284 151.4764,91.3084 C151.6564,91.3794 151.8464,91.4194 152.0464,91.4194 C152.2464,91.4194 152.4464,91.3794 152.6264,91.3084 C152.8064,91.2284 152.9664,91.1194 153.1064,90.9784 C153.2474,90.8394 153.3564,90.6784 153.4364,90.4994 C153.5164,90.3084 153.5474,90.1194 153.5474,89.9194 C153.5474,89.8184 153.5374,89.7284 153.5164,89.6294 C153.4974,89.5284 153.4764,89.4384 153.4364,89.3494 L153.2974,89.0894 L153.1064,88.8584 C152.8324,88.5764 152.4394,88.4234 152.0404,88.4234" id="Fill-15" fill="#E3E8EC"></path>
                        <path d="M171.051,88.4201 L170.35,88.4201 C170.091,88.8681 169.606,89.1701 169.051,89.1701 L156.752,89.1701 C156.624,89.3911 156.551,89.6471 156.551,89.9201 C156.551,90.7481 157.223,91.4201 158.051,91.4201 L171.051,91.4201 C171.879,91.4201 172.551,90.7481 172.551,89.9201 C172.551,89.0921 171.879,88.4201 171.051,88.4201" id="Fill-17" fill="#E3E8EC"></path>
                        <path d="M130.0508,88.4201 L129.3498,88.4201 C129.0908,88.8681 128.6058,89.1701 128.0508,89.1701 L92.7518,89.1701 C92.6238,89.3911 92.5508,89.6471 92.5508,89.9201 C92.5508,90.7481 93.2228,91.4201 94.0508,91.4201 L130.0508,91.4201 C130.8788,91.4201 131.5508,90.7481 131.5508,89.9201 C131.5508,89.0921 130.8788,88.4201 130.0508,88.4201" id="Fill-19" fill="#E3E8EC"></path>
                        <path d="M171.051,96.42 L170.35,96.42 C170.091,96.868 169.606,97.17 169.051,97.17 L154.752,97.17 C154.624,97.391 154.551,97.647 154.551,97.92 C154.551,98.748 155.223,99.42 156.051,99.42 L171.051,99.42 C171.879,99.42 172.551,98.748 172.551,97.92 C172.551,97.092 171.879,96.42 171.051,96.42" id="Fill-21" fill="#E3E8EC"></path>
                        <path d="M109.0505,104.4198 L108.3505,104.4198 C108.0905,104.8678 107.6055,105.1698 107.0505,105.1698 L92.7515,105.1698 C92.6235,105.3908 92.5505,105.6468 92.5505,105.9198 C92.5505,106.7478 93.2225,107.4198 94.0505,107.4198 L109.0505,107.4198 C109.8785,107.4198 110.5505,106.7478 110.5505,105.9198 C110.5505,105.0918 109.8785,104.4198 109.0505,104.4198" id="Fill-23" fill="#E3E8EC"></path>
                        <path d="M130.0508,104.4198 L129.3498,104.4198 C129.0908,104.8678 128.6058,105.1698 128.0508,105.1698 L113.7518,105.1698 C113.6238,105.3908 113.5508,105.6468 113.5508,105.9198 C113.5508,106.7478 114.2228,107.4198 115.0508,107.4198 L130.0508,107.4198 C130.8788,107.4198 131.5508,106.7478 131.5508,105.9198 C131.5508,105.0918 130.8788,104.4198 130.0508,104.4198" id="Fill-25" fill="#E3E8EC"></path>
                        <path d="M170.0509,104.4198 L169.3499,104.4198 C169.0909,104.8678 168.6059,105.1698 168.0509,105.1698 L134.7519,105.1698 C134.6239,105.3908 134.5509,105.6468 134.5509,105.9198 C134.5509,106.7478 135.2229,107.4198 136.0509,107.4198 L170.0509,107.4198 C170.8789,107.4198 171.5509,106.7478 171.5509,105.9198 C171.5509,105.0918 170.8789,104.4198 170.0509,104.4198" id="Fill-27" fill="#E3E8EC"></path>
                        <path d="M150.0508,96.42 L149.3498,96.42 C149.0908,96.868 148.6058,97.17 148.0508,97.17 L92.7518,97.17 C92.6238,97.391 92.5508,97.647 92.5508,97.92 C92.5508,98.748 93.2228,99.42 94.0508,99.42 L150.0508,99.42 C150.8788,99.42 151.5508,98.748 151.5508,97.92 C151.5508,97.092 150.8788,96.42 150.0508,96.42" id="Fill-29" fill="#E3E8EC"></path>
                        <path d="M155.0508,79.4202 L154.3498,79.4202 C154.0908,79.8682 153.6058,80.1702 153.0508,80.1702 L101.7518,80.1702 C101.6238,80.3902 101.5508,80.6462 101.5508,80.9202 C101.5508,81.7482 102.2228,82.4202 103.0508,82.4202 L155.0508,82.4202 C155.8788,82.4202 156.5508,81.7482 156.5508,80.9202 C156.5508,80.0922 155.8788,79.4202 155.0508,79.4202" id="Fill-31" fill="#E3E8EC"></path>
                        <path d="M171.051,79.4202 L170.35,79.4202 C170.09,79.8682 169.606,80.1702 169.051,80.1702 L159.752,80.1702 C159.624,80.3902 159.551,80.6462 159.551,80.9202 C159.551,81.7482 160.223,82.4202 161.051,82.4202 L171.051,82.4202 C171.879,82.4202 172.551,81.7482 172.551,80.9202 C172.551,80.0922 171.879,79.4202 171.051,79.4202" id="Fill-33" fill="#E3E8EC"></path>
                        <path d="M97.0508,79.4202 L96.3498,79.4202 C96.0908,79.8682 95.6058,80.1702 95.0508,80.1702 L92.7518,80.1702 C92.6238,80.3902 92.5508,80.6462 92.5508,80.9202 C92.5508,81.7482 93.2228,82.4202 94.0508,82.4202 L97.0508,82.4202 C97.8788,82.4202 98.5508,81.7482 98.5508,80.9202 C98.5508,80.0922 97.8788,79.4202 97.0508,79.4202" id="Fill-35" fill="#E3E8EC"></path>
                        <path d="M171.051,71.4199 L170.35,71.4199 C170.091,71.8679 169.606,72.1699 169.051,72.1699 L132.752,72.1699 C132.624,72.3909 132.551,72.6469 132.551,72.9199 C132.551,73.7479 133.223,74.4199 134.051,74.4199 L171.051,74.4199 C171.879,74.4199 172.551,73.7479 172.551,72.9199 C172.551,72.0919 171.879,71.4199 171.051,71.4199" id="Fill-37" fill="#E3E8EC"></path>
                        <path d="M128.051,71.4199 L127.35,71.4199 C127.091,71.8679 126.606,72.1699 126.051,72.1699 L114.751,72.1699 C114.624,72.3909 114.551,72.6469 114.551,72.9199 C114.551,73.7479 115.223,74.4199 116.051,74.4199 L128.051,74.4199 C128.879,74.4199 129.551,73.7479 129.551,72.9199 C129.551,72.0919 128.879,71.4199 128.051,71.4199" id="Fill-39" fill="#E3E8EC"></path>
                        <path d="M110.0507,71.4199 L109.3497,71.4199 C109.0907,71.8679 108.6057,72.1699 108.0507,72.1699 L92.7517,72.1699 C92.6237,72.3909 92.5507,72.6469 92.5507,72.9199 C92.5507,73.7479 93.2227,74.4199 94.0507,74.4199 L110.0507,74.4199 C110.8787,74.4199 111.5507,73.7479 111.5507,72.9199 C111.5507,72.0919 110.8787,71.4199 110.0507,71.4199" id="Fill-41" fill="#E3E8EC"></path>
                        <path d="M62.2719,73.6664 C63.0469,74.0624 63.8039,74.4804 64.5459,74.9204 C64.5689,74.8184 64.5909,74.7194 64.6139,74.6164 C63.8459,74.2784 63.0659,73.9614 62.2719,73.6664 M77.2999,124.8764 C70.1819,135.6824 57.1639,142.9204 42.2799,142.9204 C36.8119,142.9204 31.5979,141.9434 26.8339,140.1724 C32.7429,143.1954 39.5629,144.9204 46.8299,144.9204 C60.9259,144.9204 73.3479,138.4294 80.6699,128.5634 C79.4959,127.3744 78.3719,126.1444 77.2999,124.8764" id="Fill-43" fill="#DADCDE"></path>
                        <path d="M67.3894,75.9624 C67.3394,76.1954 67.2914,76.4314 67.2444,76.6654 C76.8614,83.4344 83.0504,94.0234 83.0504,105.9204 C83.0504,111.7414 81.5684,117.2494 78.9284,122.1504 C80.0214,123.4894 81.1764,124.7864 82.3874,126.0364 C85.7064,120.6814 87.6004,114.5004 87.6004,107.9204 C87.6004,94.2924 79.4814,82.3824 67.3894,75.9624" id="Fill-45" fill="#C7CDD2"></path>
                        <path d="M64.6143,74.6167 C64.5913,74.7187 64.5693,74.8177 64.5463,74.9207 C65.4723,75.4697 66.3723,76.0517 67.2443,76.6657 C67.2913,76.4317 67.3393,76.1957 67.3893,75.9627 C66.4863,75.4827 65.5593,75.0337 64.6143,74.6167 M78.9283,122.1497 C78.4263,123.0817 77.8833,123.9907 77.3003,124.8767 C78.3713,126.1447 79.4963,127.3747 80.6703,128.5627 C81.2783,127.7437 81.8513,126.9007 82.3873,126.0357 C81.1763,124.7867 80.0213,123.4897 78.9283,122.1497" id="Fill-47" fill="#444E58"></path>
                        <path d="M17.7505,135.4801 C16.4075,137.8861 14.1705,139.5311 11.6545,140.1831 C11.0885,140.7241 10.4565,141.2141 9.7505,141.6301 C11.0545,142.2171 12.4175,142.4941 13.7585,142.4941 C17.0205,142.4941 20.1515,140.8521 21.9795,138.0151 C20.5095,137.2491 19.0975,136.4011 17.7505,135.4801" id="Fill-49" fill="#DADCDE"></path>
                        <path d="M17.7505,135.4801 C15.3005,139.8701 9.8705,141.7301 5.2005,139.6301 C5.9805,139.1701 6.6705,138.6201 7.2805,138.0101 C9.8505,135.3901 10.7605,131.5101 9.5605,128.0001 C4.5005,121.8301 1.5005,114.2001 1.5005,105.9201 C1.5005,85.4901 19.7605,68.9201 42.2805,68.9201 C64.8005,68.9201 83.0505,85.4901 83.0505,105.9201 C83.0505,126.3501 64.8005,142.9201 42.2805,142.9201 C33.0705,142.9201 24.5805,140.1501 17.7505,135.4801" id="Fill-51" fill="#E8EDF1"></path>
                        <path d="M17.749,136.9805 C17.454,136.9805 17.156,136.8945 16.896,136.7135 C16.581,136.4965 16.408,136.3835 16.279,136.3005 C15.985,136.1115 15.842,136.0145 15.238,135.5275 C14.594,135.0075 14.493,134.0635 15.014,133.4175 C15.533,132.7725 16.476,132.6705 17.123,133.1935 C17.609,133.5855 17.693,133.6425 17.906,133.7805 C18.053,133.8755 18.248,134.0015 18.603,134.2475 C19.285,134.7185 19.455,135.6535 18.983,136.3345 C18.692,136.7545 18.225,136.9805 17.749,136.9805" id="Fill-53" fill="#444E58"></path>
                        <path d="M42.2803,144.42 C33.0473,144.42 24.2723,141.757 16.9033,136.719 C16.2193,136.251 16.0443,135.317 16.5113,134.634 C16.9803,133.95 17.9133,133.775 18.5963,134.242 C25.4653,138.938 33.6543,141.42 42.2803,141.42 C63.9343,141.42 81.5513,125.495 81.5513,105.92 C81.5513,86.345 63.9343,70.42 42.2803,70.42 C20.6213,70.42 3.0003,86.345 3.0003,105.92 C3.0003,113.585 5.6703,120.891 10.7203,127.049 C11.2463,127.69 11.1523,128.635 10.5113,129.16 C9.8703,129.684 8.9263,129.592 8.4003,128.951 C2.9053,122.251 0.0003,114.286 0.0003,105.92 C0.0003,84.691 18.9673,67.42 42.2803,67.42 C65.5883,67.42 84.5513,84.691 84.5513,105.92 C84.5513,127.149 65.5883,144.42 42.2803,144.42" id="Fill-55" fill="#444E58"></path>
                        <path d="M9.2529,142.0079 C7.6919,142.0079 6.1059,141.6819 4.5849,140.9979 C3.8289,140.6579 3.4919,139.7709 3.8319,139.0149 C4.1719,138.2589 5.0629,137.9229 5.8149,138.2619 C9.7649,140.0369 14.3309,138.5289 16.4399,134.7499 C16.8449,134.0269 17.7599,133.7669 18.4809,134.1709 C19.2039,134.5739 19.4639,135.4879 19.0599,136.2109 C16.9989,139.9049 13.2139,142.0079 9.2529,142.0079" id="Fill-57" fill="#444E58"></path>
                        <path d="M5.2012,141.13 C4.6872,141.13 4.1872,140.866 3.9082,140.392 C3.4872,139.678 3.7242,138.759 4.4382,138.338 C5.0752,137.962 5.6742,137.495 6.2192,136.95 C6.8052,136.362 7.7542,136.364 8.3402,136.948 C8.9272,137.533 8.9272,138.484 8.3422,139.069 C7.6182,139.795 6.8172,140.418 5.9622,140.922 C5.7222,141.064 5.4612,141.13 5.2012,141.13" id="Fill-59" fill="#444E58"></path>
                        <path d="M7.2803,139.5098 C6.9013,139.5098 6.5213,139.3668 6.2293,139.0798 C5.6383,138.4998 5.6303,137.5508 6.2103,136.9588 C8.3843,134.7418 9.1433,131.4158 8.1413,128.4858 C7.8733,127.7008 8.2913,126.8488 9.0753,126.5808 C9.8603,126.3098 10.7123,126.7308 10.9793,127.5148 C12.3453,131.5088 11.3133,136.0408 8.3503,139.0608 C8.0573,139.3598 7.6693,139.5098 7.2803,139.5098" id="Fill-61" fill="#444E58"></path>
                        <path d="M28.0507,97.6701 L27.5297,97.6701 C27.5437,97.7511 27.5507,97.8351 27.5507,97.9201 C27.5507,98.7481 26.8787,99.4201 26.0507,99.4201 L17.5717,99.4201 C17.6907,100.1291 18.3077,100.6701 19.0507,100.6701 L28.0507,100.6701 C28.8787,100.6701 29.5507,99.9981 29.5507,99.1701 C29.5507,98.3421 28.8787,97.6701 28.0507,97.6701" id="Fill-63" fill="#E3E8EC"></path>
                        <path d="M70.051,97.6701 L69.53,97.6701 C69.544,97.7511 69.551,97.8351 69.551,97.9201 C69.551,98.7481 68.879,99.4201 68.051,99.4201 L32.571,99.4201 C32.691,100.1291 33.308,100.6701 34.051,100.6701 L70.051,100.6701 C70.879,100.6701 71.551,99.9981 71.551,99.1701 C71.551,98.3421 70.879,97.6701 70.051,97.6701" id="Fill-65" fill="#E3E8EC"></path>
                        <path d="M61.0505,105.6699 L60.5305,105.6699 C60.5435,105.7509 60.5505,105.8349 60.5505,105.9199 C60.5505,106.7479 59.8785,107.4199 59.0505,107.4199 L17.5715,107.4199 C17.6905,108.1289 18.3075,108.6699 19.0505,108.6699 L61.0505,108.6699 C61.8785,108.6699 62.5505,107.9979 62.5505,107.1699 C62.5505,106.3419 61.8785,105.6699 61.0505,105.6699" id="Fill-67" fill="#E3E8EC"></path>
                        <path d="M70.051,105.6699 L69.53,105.6699 C69.544,105.7509 69.551,105.8349 69.551,105.9199 C69.551,106.7479 68.879,107.4199 68.051,107.4199 L65.572,107.4199 C65.691,108.1289 66.308,108.6699 67.051,108.6699 L70.051,108.6699 C70.879,108.6699 71.551,107.9979 71.551,107.1699 C71.551,106.3419 70.879,105.6699 70.051,105.6699" id="Fill-69" fill="#E3E8EC"></path>
                        <path d="M31.3907,113.6698 L30.8697,113.6698 C30.8837,113.7508 30.8907,113.8348 30.8907,113.9198 C30.8907,114.7478 30.2187,115.4198 29.3907,115.4198 L17.9117,115.4198 C18.0307,116.1288 18.6477,116.6698 19.3907,116.6698 L31.3907,116.6698 C32.2187,116.6698 32.8907,115.9978 32.8907,115.1698 C32.8907,114.3418 32.2187,113.6698 31.3907,113.6698" id="Fill-71" fill="#E3E8EC"></path>
                        <path d="M49.3906,113.6698 L48.8696,113.6698 C48.8836,113.7508 48.8906,113.8348 48.8906,113.9198 C48.8906,114.7478 48.2186,115.4198 47.3906,115.4198 L35.9116,115.4198 C36.0306,116.1288 36.6476,116.6698 37.3906,116.6698 L49.3906,116.6698 C50.2186,116.6698 50.8906,115.9978 50.8906,115.1698 C50.8906,114.3418 50.2186,113.6698 49.3906,113.6698" id="Fill-73" fill="#E3E8EC"></path>
                        <path d="M70.3907,113.6698 L69.8697,113.6698 C69.8837,113.7508 69.8907,113.8348 69.8907,113.9198 C69.8907,114.7478 69.2187,115.4198 68.3907,115.4198 L52.9117,115.4198 C53.0307,116.1288 53.6477,116.6698 54.3907,116.6698 L70.3907,116.6698 C71.2187,116.6698 71.8907,115.9978 71.8907,115.1698 C71.8907,114.3418 71.2187,113.6698 70.3907,113.6698" id="Fill-75" fill="#E3E8EC"></path>
                        <path d="M144.0507,86.1699 L135.0507,86.1699 C134.2227,86.1699 133.5507,86.8419 133.5507,87.6699 C133.5507,88.4979 134.2227,89.1699 135.0507,89.1699 L135.7517,89.1699 C136.0107,88.7219 136.4957,88.4199 137.0507,88.4199 L145.3497,88.4199 C145.4777,88.1999 145.5507,87.9429 145.5507,87.6699 C145.5507,86.8419 144.8787,86.1699 144.0507,86.1699" id="Fill-77" fill="#AED5EB"></path>
                        <path d="M145.35,88.4201 L137.051,88.4201 C136.496,88.4201 136.011,88.7221 135.751,89.1701 L144.051,89.1701 C144.606,89.1701 145.09,88.8681 145.35,88.4201" id="Fill-79" fill="#ACD3E8"></path>
                        <path d="M150.0518,86.1691 C149.9548,86.1691 149.8568,86.1791 149.7568,86.1991 L149.4768,86.2781 L149.2168,86.4191 L148.9858,86.6081 C148.7068,86.8891 148.5468,87.2781 148.5468,87.6691 C148.5468,87.8691 148.5868,88.0591 148.6668,88.2491 C148.7358,88.4291 148.8468,88.5891 148.9858,88.7281 C149.1268,88.8691 149.2968,88.9781 149.4768,89.0591 C149.6568,89.1291 149.8568,89.1691 150.0568,89.1691 C150.2468,89.1691 150.4458,89.1291 150.6268,89.0591 C150.8068,88.9781 150.9668,88.8691 151.1068,88.7281 C151.2468,88.5891 151.3568,88.4291 151.4368,88.2491 C151.5168,88.0591 151.5568,87.8691 151.5568,87.6691 C151.5568,87.2781 151.3868,86.8891 151.1068,86.6081 L150.8868,86.4191 L150.6268,86.2781 L150.3468,86.1991 C150.2468,86.1791 150.1488,86.1691 150.0518,86.1691" id="Fill-81" fill="#AED5EB"></path>
                        <path d="M169.0508,86.1699 L156.0508,86.1699 C155.2228,86.1699 154.5508,86.8419 154.5508,87.6699 C154.5508,88.4979 155.2228,89.1699 156.0508,89.1699 L156.7518,89.1699 C157.0108,88.7219 157.4958,88.4199 158.0508,88.4199 L170.3498,88.4199 C170.4778,88.1999 170.5508,87.9429 170.5508,87.6699 C170.5508,86.8419 169.8788,86.1699 169.0508,86.1699" id="Fill-83" fill="#AED5EB"></path>
                        <path d="M170.35,88.4201 L158.051,88.4201 C157.496,88.4201 157.011,88.7221 156.752,89.1701 L169.051,89.1701 C169.606,89.1701 170.091,88.8681 170.35,88.4201" id="Fill-85" fill="#ACD3E8"></path>
                        <path d="M128.051,86.1699 L92.051,86.1699 C91.223,86.1699 90.551,86.8419 90.551,87.6699 C90.551,88.4979 91.223,89.1699 92.051,89.1699 L92.751,89.1699 C93.011,88.7219 93.496,88.4199 94.051,88.4199 L129.35,88.4199 C129.478,88.1999 129.551,87.9429 129.551,87.6699 C129.551,86.8419 128.879,86.1699 128.051,86.1699" id="Fill-87" fill="#AED5EB"></path>
                        <path d="M129.3499,88.4201 L94.0509,88.4201 C93.4959,88.4201 93.0109,88.7221 92.7519,89.1701 L128.0509,89.1701 C128.6059,89.1701 129.0899,88.8681 129.3499,88.4201" id="Fill-89" fill="#ACD3E8"></path>
                        <path d="M169.0508,94.1698 L154.0508,94.1698 C153.2228,94.1698 152.5508,94.8418 152.5508,95.6698 C152.5508,96.4978 153.2228,97.1698 154.0508,97.1698 L154.7518,97.1698 C155.0108,96.7218 155.4958,96.4198 156.0508,96.4198 L170.3498,96.4198 C170.4778,96.1998 170.5508,95.9428 170.5508,95.6698 C170.5508,94.8418 169.8788,94.1698 169.0508,94.1698" id="Fill-91" fill="#AED5EB"></path>
                        <path d="M170.35,96.42 L156.051,96.42 C155.496,96.42 155.011,96.722 154.752,97.17 L169.051,97.17 C169.606,97.17 170.091,96.868 170.35,96.42" id="Fill-93" fill="#ACD3E8"></path>
                        <path d="M107.0508,102.1701 L92.0508,102.1701 C91.2228,102.1701 90.5508,102.8421 90.5508,103.6701 C90.5508,104.4981 91.2228,105.1701 92.0508,105.1701 L92.7518,105.1701 C93.0108,104.7221 93.4958,104.4201 94.0508,104.4201 L108.3498,104.4201 C108.4778,104.1991 108.5508,103.9431 108.5508,103.6701 C108.5508,102.8421 107.8788,102.1701 107.0508,102.1701" id="Fill-95" fill="#AED5EB"></path>
                        <path d="M108.3501,104.4198 L94.0511,104.4198 C93.4961,104.4198 93.0111,104.7218 92.7521,105.1698 L107.0511,105.1698 C107.6061,105.1698 108.0901,104.8678 108.3501,104.4198" id="Fill-97" fill="#ACD3E8"></path>
                        <path d="M128.051,102.1701 L113.051,102.1701 C112.223,102.1701 111.551,102.8421 111.551,103.6701 C111.551,104.4981 112.223,105.1701 113.051,105.1701 L113.752,105.1701 C114.011,104.7221 114.496,104.4201 115.051,104.4201 L129.35,104.4201 C129.478,104.1991 129.551,103.9431 129.551,103.6701 C129.551,102.8421 128.879,102.1701 128.051,102.1701" id="Fill-99" fill="#AED5EB"></path>
                        <path d="M129.3499,104.4198 L115.0509,104.4198 C114.4959,104.4198 114.0109,104.7218 113.7519,105.1698 L128.0509,105.1698 C128.6059,105.1698 129.0899,104.8678 129.3499,104.4198" id="Fill-101" fill="#ACD3E8"></path>
                        <path d="M168.0507,102.1701 L134.0507,102.1701 C133.2227,102.1701 132.5507,102.8421 132.5507,103.6701 C132.5507,104.4981 133.2227,105.1701 134.0507,105.1701 L134.7517,105.1701 C135.0107,104.7221 135.4957,104.4201 136.0507,104.4201 L169.3497,104.4201 C169.4777,104.1991 169.5507,103.9431 169.5507,103.6701 C169.5507,102.8421 168.8787,102.1701 168.0507,102.1701" id="Fill-103" fill="#AED5EB"></path>
                        <path d="M169.35,104.4198 L136.051,104.4198 C135.496,104.4198 135.011,104.7218 134.752,105.1698 L168.051,105.1698 C168.606,105.1698 169.09,104.8678 169.35,104.4198" id="Fill-105" fill="#ACD3E8"></path>
                        <path d="M148.0507,94.1698 L92.0507,94.1698 C91.2227,94.1698 90.5507,94.8418 90.5507,95.6698 C90.5507,96.4978 91.2227,97.1698 92.0507,97.1698 L92.7517,97.1698 C93.0117,96.7218 93.4957,96.4198 94.0507,96.4198 L149.3497,96.4198 C149.4777,96.1998 149.5507,95.9428 149.5507,95.6698 C149.5507,94.8418 148.8787,94.1698 148.0507,94.1698" id="Fill-107" fill="#AED5EB"></path>
                        <path d="M149.3499,96.42 L94.0509,96.42 C93.4959,96.42 93.0109,96.722 92.7519,97.17 L148.0509,97.17 C148.6059,97.17 149.0899,96.868 149.3499,96.42" id="Fill-109" fill="#ACD3E8"></path>
                        <path d="M153.0507,77.17 L101.0507,77.17 C100.2227,77.17 99.5507,77.842 99.5507,78.67 C99.5507,79.498 100.2227,80.17 101.0507,80.17 L101.7517,80.17 C102.0117,79.722 102.4957,79.42 103.0507,79.42 L154.3497,79.42 C154.4777,79.2 154.5507,78.943 154.5507,78.67 C154.5507,77.842 153.8787,77.17 153.0507,77.17" id="Fill-111" fill="#AED5EB"></path>
                        <path d="M154.3499,79.4202 L103.0509,79.4202 C102.4959,79.4202 102.0109,79.7222 101.7519,80.1702 L153.0509,80.1702 C153.6059,80.1702 154.0899,79.8682 154.3499,79.4202" id="Fill-113" fill="#ACD3E8"></path>
                        <path d="M169.0508,77.17 L159.0508,77.17 C158.2228,77.17 157.5508,77.842 157.5508,78.67 C157.5508,79.498 158.2228,80.17 159.0508,80.17 L159.7518,80.17 C160.0108,79.722 160.4958,79.42 161.0508,79.42 L170.3498,79.42 C170.4778,79.2 170.5508,78.943 170.5508,78.67 C170.5508,77.842 169.8788,77.17 169.0508,77.17" id="Fill-115" fill="#AED5EB"></path>
                        <path d="M170.35,79.4202 L161.051,79.4202 C160.496,79.4202 160.011,79.7222 159.752,80.1702 L169.051,80.1702 C169.606,80.1702 170.09,79.8682 170.35,79.4202" id="Fill-117" fill="#ACD3E8"></path>
                        <path d="M95.0507,77.17 L92.0507,77.17 C91.2227,77.17 90.5507,77.842 90.5507,78.67 C90.5507,79.498 91.2227,80.17 92.0507,80.17 L92.7517,80.17 C93.0117,79.722 93.4957,79.42 94.0507,79.42 L96.3497,79.42 C96.4777,79.2 96.5507,78.943 96.5507,78.67 C96.5507,77.842 95.8787,77.17 95.0507,77.17" id="Fill-119" fill="#AED5EB"></path>
                        <path d="M96.3497,79.4202 L94.0507,79.4202 C93.4957,79.4202 93.0107,79.7222 92.7517,80.1702 L95.0507,80.1702 C95.6057,80.1702 96.0907,79.8682 96.3497,79.4202" id="Fill-121" fill="#ACD3E8"></path>
                        <path d="M169.0508,69.1701 L132.0508,69.1701 C131.2228,69.1701 130.5508,69.8421 130.5508,70.6701 C130.5508,71.4981 131.2228,72.1701 132.0508,72.1701 L132.7518,72.1701 C133.0108,71.7221 133.4958,71.4201 134.0508,71.4201 L170.3498,71.4201 C170.4778,71.1991 170.5508,70.9431 170.5508,70.6701 C170.5508,69.8421 169.8788,69.1701 169.0508,69.1701" id="Fill-123" fill="#AED5EB"></path>
                        <path d="M170.35,71.4199 L134.051,71.4199 C133.496,71.4199 133.011,71.7219 132.752,72.1699 L169.051,72.1699 C169.606,72.1699 170.091,71.8679 170.35,71.4199" id="Fill-125" fill="#ACD3E8"></path>
                        <path d="M126.0508,69.1701 L114.0508,69.1701 C113.2228,69.1701 112.5508,69.8421 112.5508,70.6701 C112.5508,71.4981 113.2228,72.1701 114.0508,72.1701 L114.7518,72.1701 C115.0108,71.7221 115.4958,71.4201 116.0508,71.4201 L127.3498,71.4201 C127.4778,71.1991 127.5508,70.9431 127.5508,70.6701 C127.5508,69.8421 126.8788,69.1701 126.0508,69.1701" id="Fill-127" fill="#AED5EB"></path>
                        <path d="M127.3501,71.4199 L116.0511,71.4199 C115.4961,71.4199 115.0111,71.7219 114.7511,72.1699 L126.0511,72.1699 C126.6061,72.1699 127.0901,71.8679 127.3501,71.4199" id="Fill-129" fill="#ACD3E8"></path>
                        <path d="M108.0509,69.1701 L92.0509,69.1701 C91.2229,69.1701 90.5509,69.8421 90.5509,70.6701 C90.5509,71.4981 91.2229,72.1701 92.0509,72.1701 L92.7519,72.1701 C93.0109,71.7221 93.4959,71.4201 94.0509,71.4201 L109.3499,71.4201 C109.4779,71.1991 109.5509,70.9431 109.5509,70.6701 C109.5509,69.8421 108.8789,69.1701 108.0509,69.1701" id="Fill-131" fill="#AED5EB"></path>
                        <path d="M109.3499,71.4199 L94.0509,71.4199 C93.4959,71.4199 93.0109,71.7219 92.7519,72.1699 L108.0509,72.1699 C108.6059,72.1699 109.0909,71.8679 109.3499,71.4199" id="Fill-133" fill="#ACD3E8"></path>
                        <path d="M26.0509,96.42 L17.0509,96.42 C16.2229,96.42 15.5509,97.092 15.5509,97.92 C15.5509,98.748 16.2229,99.42 17.0509,99.42 L17.5719,99.42 C17.5579,99.339 17.5509,99.255 17.5509,99.17 C17.5509,98.342 18.2229,97.67 19.0509,97.67 L27.5299,97.67 C27.4109,96.961 26.7939,96.42 26.0509,96.42" id="Fill-135" fill="#9ECEAE"></path>
                        <path d="M27.5298,97.6701 L19.0508,97.6701 C18.2228,97.6701 17.5508,98.3421 17.5508,99.1701 C17.5508,99.2551 17.5578,99.3381 17.5718,99.4201 L26.0508,99.4201 C26.8788,99.4201 27.5508,98.7481 27.5508,97.9201 C27.5508,97.8351 27.5438,97.7511 27.5298,97.6701" id="Fill-137" fill="#9CCCAC"></path>
                        <path d="M68.0508,96.42 L32.0508,96.42 C31.2228,96.42 30.5508,97.092 30.5508,97.92 C30.5508,98.748 31.2228,99.42 32.0508,99.42 L32.5718,99.42 C32.5578,99.339 32.5508,99.255 32.5508,99.17 C32.5508,98.342 33.2228,97.67 34.0508,97.67 L69.5298,97.67 C69.4108,96.961 68.7938,96.42 68.0508,96.42" id="Fill-139" fill="#9ECEAE"></path>
                        <path d="M69.5302,97.6701 L34.0512,97.6701 C33.2232,97.6701 32.5512,98.3421 32.5512,99.1701 C32.5512,99.2551 32.5582,99.3381 32.5712,99.4201 L68.0512,99.4201 C68.8792,99.4201 69.5512,98.7481 69.5512,97.9201 C69.5512,97.8351 69.5442,97.7511 69.5302,97.6701" id="Fill-141" fill="#9CCCAC"></path>
                        <path d="M59.0508,104.4198 L17.0508,104.4198 C16.2228,104.4198 15.5508,105.0918 15.5508,105.9198 C15.5508,106.7478 16.2228,107.4198 17.0508,107.4198 L17.5718,107.4198 C17.5578,107.3388 17.5508,107.2548 17.5508,107.1698 C17.5508,106.3418 18.2228,105.6698 19.0508,105.6698 L60.5298,105.6698 C60.4108,104.9608 59.7938,104.4198 59.0508,104.4198" id="Fill-143" fill="#9ECEAE"></path>
                        <path d="M60.5302,105.6699 L19.0512,105.6699 C18.2222,105.6699 17.5512,106.3419 17.5512,107.1699 C17.5512,107.2549 17.5582,107.3389 17.5722,107.4199 L59.0512,107.4199 C59.8792,107.4199 60.5512,106.7479 60.5512,105.9199 C60.5512,105.8349 60.5442,105.7509 60.5302,105.6699" id="Fill-145" fill="#9CCCAC"></path>
                        <path d="M68.0508,104.4198 L65.0508,104.4198 C64.2228,104.4198 63.5508,105.0918 63.5508,105.9198 C63.5508,106.7478 64.2228,107.4198 65.0508,107.4198 L65.5718,107.4198 C65.5578,107.3388 65.5508,107.2548 65.5508,107.1698 C65.5508,106.3418 66.2228,105.6698 67.0508,105.6698 L69.5298,105.6698 C69.4108,104.9608 68.7938,104.4198 68.0508,104.4198" id="Fill-147" fill="#9ECEAE"></path>
                        <path d="M69.5302,105.6699 L67.0512,105.6699 C66.2222,105.6699 65.5512,106.3419 65.5512,107.1699 C65.5512,107.2549 65.5582,107.3389 65.5722,107.4199 L68.0512,107.4199 C68.8792,107.4199 69.5512,106.7479 69.5512,105.9199 C69.5512,105.8349 69.5442,105.7509 69.5302,105.6699" id="Fill-149" fill="#9CCCAC"></path>
                        <path d="M29.3905,112.4201 L17.3905,112.4201 C16.5625,112.4201 15.8905,113.0921 15.8905,113.9201 C15.8905,114.7481 16.5625,115.4201 17.3905,115.4201 L17.9115,115.4201 C17.8975,115.3391 17.8905,115.2551 17.8905,115.1701 C17.8905,114.3421 18.5625,113.6701 19.3905,113.6701 L30.8695,113.6701 C30.7505,112.9611 30.1335,112.4201 29.3905,112.4201" id="Fill-151" fill="#9ECEAE"></path>
                        <path d="M30.8699,113.6698 L19.3909,113.6698 C18.5629,113.6698 17.8909,114.3418 17.8909,115.1698 C17.8909,115.2548 17.8979,115.3388 17.9119,115.4198 L29.3909,115.4198 C30.2189,115.4198 30.8909,114.7478 30.8909,113.9198 C30.8909,113.8348 30.8839,113.7508 30.8699,113.6698" id="Fill-153" fill="#9CCCAC"></path>
                        <path d="M47.3905,112.4201 L35.3905,112.4201 C34.5625,112.4201 33.8905,113.0921 33.8905,113.9201 C33.8905,114.7481 34.5625,115.4201 35.3905,115.4201 L35.9115,115.4201 C35.8975,115.3391 35.8905,115.2551 35.8905,115.1701 C35.8905,114.3421 36.5625,113.6701 37.3905,113.6701 L48.8695,113.6701 C48.7505,112.9611 48.1335,112.4201 47.3905,112.4201" id="Fill-155" fill="#9ECEAE"></path>
                        <path d="M48.8698,113.6698 L37.3908,113.6698 C36.5628,113.6698 35.8908,114.3418 35.8908,115.1698 C35.8908,115.2548 35.8978,115.3388 35.9118,115.4198 L47.3908,115.4198 C48.2188,115.4198 48.8908,114.7478 48.8908,113.9198 C48.8908,113.8348 48.8838,113.7508 48.8698,113.6698" id="Fill-157" fill="#9CCCAC"></path>
                        <path d="M68.3906,112.4201 L52.3906,112.4201 C51.5626,112.4201 50.8906,113.0921 50.8906,113.9201 C50.8906,114.7481 51.5626,115.4201 52.3906,115.4201 L52.9116,115.4201 C52.8976,115.3391 52.8906,115.2551 52.8906,115.1701 C52.8906,114.3421 53.5626,113.6701 54.3906,113.6701 L69.8696,113.6701 C69.7506,112.9611 69.1336,112.4201 68.3906,112.4201" id="Fill-159" fill="#9ECEAE"></path>
                        <path d="M69.87,113.6698 L54.391,113.6698 C53.563,113.6698 52.891,114.3418 52.891,115.1698 C52.891,115.2548 52.898,115.3388 52.911,115.4198 L68.391,115.4198 C69.219,115.4198 69.891,114.7478 69.891,113.9198 C69.891,113.8348 69.884,113.7508 69.87,113.6698" id="Fill-161" fill="#9CCCAC"></path>
                        <path d="M169.3657,38.5698 C169.3657,26.6348 179.0407,16.9598 190.9757,16.9598 C202.9107,16.9598 212.5857,26.6348 212.5857,38.5698 C212.5857,50.5048 202.9107,60.1798 190.9757,60.1798 C179.0407,60.1798 169.3657,50.5048 169.3657,38.5698" id="Fill-163" fill="#E8EDF1"></path>
                        <path d="M169.3657,38.5698 C169.3657,26.6348 179.0407,16.9598 190.9757,16.9598 C202.9107,16.9598 212.5857,26.6348 212.5857,38.5698 C212.5857,50.5048 202.9107,60.1798 190.9757,60.1798 C179.0407,60.1798 169.3657,50.5048 169.3657,38.5698" id="Fill-165" fill="#FDE486"></path>
                        <path d="M190.9756,17.8244 C179.5366,17.8244 170.2296,27.1304 170.2296,38.5704 C170.2296,50.0094 179.5366,59.3154 190.9756,59.3154 C202.4146,59.3154 211.7206,50.0094 211.7206,38.5704 C211.7206,27.1304 202.4146,17.8244 190.9756,17.8244 M190.9756,61.0444 C178.5826,61.0444 168.5016,50.9624 168.5016,38.5704 C168.5016,26.1774 178.5826,16.0954 190.9756,16.0954 C203.3676,16.0954 213.4496,26.1774 213.4496,38.5704 C213.4496,50.9624 203.3676,61.0444 190.9756,61.0444" id="Fill-167" fill="#FBC003"></path>
                        <path d="M174.8722,60.5204 C174.7562,60.5204 174.6382,60.4854 174.5372,60.4124 C170.3742,57.4244 167.0772,53.3634 165.0012,48.6674 C164.8732,48.3764 165.0052,48.0354 165.2962,47.9064 C165.5892,47.7794 165.9272,47.9104 166.0562,48.2014 C168.0482,52.7094 171.2142,56.6084 175.2092,59.4764 C175.4672,59.6614 175.5272,60.0214 175.3412,60.2804 C175.2282,60.4374 175.0522,60.5204 174.8722,60.5204" id="Fill-169" fill="#DEEBF7"></path>
                        <path d="M163.1747,35.822 L163.1377,35.821 C162.8207,35.801 162.5787,35.527 162.5987,35.209 C163.2857,24.424 169.8417,15.015 179.7097,10.653 C179.9767,10.536 180.2457,10.427 180.5137,10.32 L180.6437,10.268 C180.9407,10.15 181.2747,10.293 181.3927,10.588 C181.5117,10.883 181.3677,11.219 181.0737,11.337 L180.9417,11.39 C180.6867,11.492 180.4307,11.595 180.1757,11.707 C170.7017,15.895 164.4087,24.928 163.7497,35.282 C163.7297,35.587 163.4767,35.822 163.1747,35.822" id="Fill-171" fill="#DEEBF7"></path>
                        <path d="M191.4066,65.843 C189.3646,65.843 187.3116,65.624 185.2766,65.182 C184.9656,65.114 184.7676,64.808 184.8356,64.496 C184.9026,64.185 185.2106,63.989 185.5206,64.055 C191.2716,65.304 197.1606,64.703 202.5496,62.321 C210.6346,58.747 216.5676,51.441 218.4206,42.777 C218.4856,42.465 218.7936,42.266 219.1036,42.334 C219.4156,42.4 219.6136,42.706 219.5466,43.017 C217.6176,52.042 211.4376,59.653 203.0156,63.376 C199.3096,65.014 195.3766,65.843 191.4066,65.843" id="Fill-173" fill="#DEEBF7"></path>
                        <path d="M217.1973,26.1707 C216.9753,26.1707 216.7653,26.0427 216.6693,25.8277 C214.6383,21.2307 211.4003,17.2787 207.3073,14.3987 C207.0463,14.2157 206.9833,13.8567 207.1673,13.5967 C207.3503,13.3357 207.7103,13.2727 207.9693,13.4567 C212.2343,16.4567 215.6073,20.5737 217.7243,25.3617 C217.8523,25.6527 217.7203,25.9927 217.4293,26.1217 L217.1973,26.1707 L217.1973,26.1707 Z" id="Fill-175" fill="#DEEBF7"></path>
                        <path d="M174.6656,61.5947 C174.5496,61.5947 174.4316,61.5597 174.3306,61.4867 C170.1686,58.4997 166.8706,54.4387 164.7946,49.7417 C164.6656,49.4507 164.7976,49.1097 165.0886,48.9807 C165.3826,48.8537 165.7196,48.9847 165.8486,49.2757 C167.8426,53.7847 171.0076,57.6837 175.0026,60.5507 C175.2606,60.7357 175.3206,61.0957 175.1346,61.3547 C175.0216,61.5117 174.8456,61.5947 174.6656,61.5947" id="Fill-177" fill="#FBC003"></path>
                        <path d="M162.9681,36.8963 L162.9311,36.8953 C162.6141,36.8753 162.3721,36.6013 162.3921,36.2833 C163.0781,25.4993 169.6351,16.0903 179.5031,11.7273 C179.7731,11.6083 180.0441,11.4993 180.3151,11.3913 L180.4371,11.3423 C180.7321,11.2243 181.0681,11.3673 181.1871,11.6623 C181.3051,11.9583 181.1611,12.2933 180.8661,12.4123 L180.7431,12.4613 C180.4841,12.5653 180.2261,12.6683 179.9691,12.7813 C170.4951,16.9693 164.2011,26.0033 163.5431,36.3563 C163.5231,36.6613 163.2701,36.8963 162.9681,36.8963" id="Fill-179" fill="#FBC003"></path>
                        <path d="M191.2001,66.9173 C189.1571,66.9173 187.1051,66.6983 185.0691,66.2563 C184.7581,66.1883 184.5611,65.8823 184.6281,65.5703 C184.6961,65.2593 185.0051,65.0623 185.3141,65.1293 C191.0651,66.3783 196.9541,65.7773 202.3431,63.3953 C210.4271,59.8223 216.3601,52.5153 218.2141,43.8513 C218.2791,43.5393 218.5871,43.3393 218.8971,43.4083 C219.2091,43.4743 219.4071,43.7803 219.3401,44.0913 C217.4111,53.1163 211.2301,60.7273 202.8091,64.4503 C199.1031,66.0883 195.1691,66.9173 191.2001,66.9173" id="Fill-181" fill="#FBC003"></path>
                        <path d="M216.9908,27.245 C216.7688,27.245 216.5588,27.117 216.4628,26.902 C214.4318,22.305 211.1928,18.353 207.0998,15.473 C206.8398,15.29 206.7768,14.931 206.9608,14.671 C207.1438,14.41 207.5028,14.346 207.7628,14.531 C212.0278,17.531 215.4008,21.648 217.5178,26.436 C217.6458,26.727 217.5138,27.067 217.2228,27.196 L216.9908,27.245 L216.9908,27.245 Z" id="Fill-183" fill="#FBC003"></path>
                        <path d="M208.703,70.5415 C208.6,70.5415 208.5,70.4865 208.449,70.3885 C208.374,70.2485 208.427,70.0735 208.567,69.9985 C219.207,64.3245 226.371,53.7685 227.731,41.7635 C227.749,41.6045 227.895,41.4905 228.05,41.5095 C228.208,41.5275 228.322,41.6705 228.304,41.8285 C226.922,54.0225 219.646,64.7435 208.839,70.5075 L208.703,70.5415 L208.703,70.5415 Z" id="Fill-185" fill="#DEEBF7"></path>
                        <path d="M189.5175,75.9338 L189.5055,75.9338 C183.1875,75.6758 176.9945,73.8008 171.5965,70.5118 C171.4605,70.4288 171.4175,70.2518 171.5005,70.1158 C171.5825,69.9788 171.7605,69.9368 171.8955,70.0198 C177.2115,73.2588 183.3085,75.1048 189.5295,75.3578 C189.6885,75.3638 189.8115,75.4978 189.8055,75.6578 C189.7985,75.8118 189.6715,75.9338 189.5175,75.9338" id="Fill-187" fill="#DEEBF7"></path>
                        <g id="Group-191" transform="translate(178.000000, 0.170000)">
                            <g id="Fill-189-Clipped">
                                <mask id="mask-2" fill="white">
                                    <use xlink:href="#path-1"></use>
                                </mask>
                                <g id="path-1"></g>
                                <path d="M32.4639,6.7133 L32.3149,6.6723 C22.6879,0.8883 11.1529,-0.1877 0.6679,3.7223 C0.5169,3.7793 0.3519,3.7023 0.2969,3.5533 C0.2409,3.4043 0.3169,3.2383 0.4659,3.1823 C11.1169,-0.7877 22.8329,0.3033 32.6129,6.1783 C32.7489,6.2603 32.7929,6.4373 32.7109,6.5733 C32.6569,6.6633 32.5609,6.7133 32.4639,6.7133" id="Fill-189" fill="#DEEBF7" mask="url(#mask-2)"></path>
                            </g>
                        </g>
                        <path d="M158.407,55.5186 C158.304,55.5186 158.204,55.4636 158.153,55.3666 C155.202,49.8326 153.689,43.6086 153.777,37.3646 C153.779,37.2056 153.902,37.0746 154.069,37.0806 C154.228,37.0836 154.355,37.2136 154.353,37.3726 C154.266,43.5196 155.756,49.6476 158.661,55.0946 C158.736,55.2356 158.683,55.4096 158.543,55.4846 L158.407,55.5186 L158.407,55.5186 Z" id="Fill-192" fill="#DEEBF7"></path>
                        <path d="M208.5764,71.6276 C208.4734,71.6276 208.3734,71.5726 208.3224,71.4746 C208.2474,71.3346 208.3004,71.1596 208.4404,71.0856 C219.0814,65.4106 226.2444,54.8556 227.6034,42.8496 C227.6214,42.6916 227.7664,42.5816 227.9234,42.5956 C228.0814,42.6136 228.1944,42.7566 228.1764,42.9146 C226.7954,55.1086 219.5194,65.8296 208.7124,71.5936 L208.5764,71.6276 L208.5764,71.6276 Z" id="Fill-194" fill="#FBC003"></path>
                        <path d="M189.3909,76.1206 L189.3789,76.1206 C183.0609,75.8626 176.8679,73.9876 171.4689,70.6986 C171.3329,70.6156 171.2899,70.4386 171.3729,70.3026 C171.4549,70.1656 171.6339,70.1236 171.7689,70.2066 C177.0839,73.4456 183.1819,75.2916 189.4029,75.5446 C189.5609,75.5506 189.6849,75.6846 189.6789,75.8446 C189.6719,75.9986 189.5449,76.1206 189.3909,76.1206" id="Fill-196" fill="#FBC003"></path>
                        <path d="M210.3367,7.3638 L210.1877,7.3228 C200.5607,1.5398 189.0247,0.4638 178.5407,4.3728 C178.3897,4.4288 178.2247,4.3518 178.1697,4.2038 C178.1137,4.0538 178.1897,3.8878 178.3387,3.8328 C188.9887,-0.1372 200.7067,0.9538 210.4857,6.8288 C210.6217,6.9108 210.6657,7.0878 210.5837,7.2238 C210.5297,7.3138 210.4337,7.3638 210.3367,7.3638" id="Fill-198" fill="#FBC003"></path>
                        <path d="M158.2804,56.6053 C158.1774,56.6053 158.0774,56.5503 158.0264,56.4523 C155.0744,50.9193 153.5614,44.6943 153.6494,38.4513 C153.6514,38.2933 153.7824,38.1853 153.9414,38.1673 C154.1004,38.1703 154.2284,38.3003 154.2254,38.4593 C154.1394,44.6053 155.6294,50.7333 158.5344,56.1813 C158.6094,56.3223 158.5564,56.4963 158.4164,56.5713 L158.2804,56.6053 L158.2804,56.6053 Z" id="Fill-200" fill="#FBC003"></path>
                        <path d="M200.4539,38.5698 C200.4539,43.8598 196.2099,48.1488 190.9759,48.1488 C185.7409,48.1488 181.4979,43.8598 181.4979,38.5698 C181.4979,33.2798 185.7409,28.9908 190.9759,28.9908 C196.2099,28.9908 200.4539,33.2798 200.4539,38.5698" id="Fill-202" fill="#FFFFFF"></path>
                        <path d="M190.9756,29.8556 C186.2256,29.8556 182.3616,33.7656 182.3616,38.5696 C182.3616,43.3746 186.2256,47.2846 190.9756,47.2846 C195.7256,47.2846 199.5896,43.3746 199.5896,38.5696 C199.5896,33.7656 195.7256,29.8556 190.9756,29.8556 M190.9756,49.0126 C185.2726,49.0126 180.6336,44.3286 180.6336,38.5696 C180.6336,32.8116 185.2726,28.1266 190.9756,28.1266 C196.6786,28.1266 201.3186,32.8116 201.3186,38.5696 C201.3186,44.3286 196.6786,49.0126 190.9756,49.0126" id="Fill-204" fill="#444E58"></path>
                        <path d="M190.204,39.8851 C189.727,39.8851 189.34,39.4981 189.34,39.0211 L189.34,34.1311 C189.34,33.6541 189.727,33.2661 190.204,33.2661 C190.681,33.2661 191.068,33.6541 191.068,34.1311 L191.068,39.0211 C191.068,39.4981 190.681,39.8851 190.204,39.8851" id="Fill-206" fill="#444E58"></path>
                        <path d="M193.6616,43.4412 C193.4406,43.4412 193.2196,43.3572 193.0506,43.1882 L189.5926,39.7302 C189.2556,39.3932 189.2556,38.8462 189.5926,38.5082 C189.9306,38.1702 190.4776,38.1702 190.8156,38.5082 L194.2726,41.9652 C194.6106,42.3032 194.6106,42.8502 194.2726,43.1882 C194.1036,43.3572 193.8826,43.4412 193.6616,43.4412" id="Fill-208" fill="#444E58"></path>
                    </g>
                </g>
            </g>
        </g>
    </g>
</svg>