<?xml version="1.0" encoding="UTF-8"?>
<svg width="56px" height="74px" viewBox="0 0 56 74" version="1.1" xmlns="http://www.w3.org/2000/svg" xmlns:xlink="http://www.w3.org/1999/xlink">
    <!-- Generator: Sketch 40.3 (33839) - http://www.bohemiancoding.com/sketch -->
    <title>ic_home_icon_4_84px</title>
    <desc>Created with Sketch.</desc>
    <defs>
        <polygon id="path-1" points="0 0 84 0 84 84 0 84"></polygon>
    </defs>
    <g id="Carnovo_Desktop_User" stroke="none" stroke-width="1" fill="none" fill-rule="evenodd">
        <g id="ic_home_icon_4_84px" transform="translate(-14.000000, -3.000000)">
            <mask id="mask-2" fill="white">
                <use xlink:href="#path-1"></use>
            </mask>
            <g id="a"></g>
            <path d="M42,59.5 C45.85,59.5 49,56.35 49,52.5 C49,48.65 45.85,45.5 42,45.5 C38.15,45.5 35,48.65 35,52.5 C35,56.35 38.15,59.5 42,59.5 L42,59.5 Z M63,28 L59.5,28 L59.5,21 C59.5,11.34 51.66,3.5 42,3.5 C32.34,3.5 24.5,11.34 24.5,21 L24.5,28 L21,28 C17.15,28 14,31.15 14,35 L14,70 C14,73.85 17.15,77 21,77 L63,77 C66.85,77 70,73.85 70,70 L70,35 C70,31.15 66.85,28 63,28 L63,28 Z M31.15,21 C31.15,15.015 36.015,10.15 42,10.15 C47.985,10.15 52.85,15.015 52.85,21 L52.85,28 L31.15,28 L31.15,21 L31.15,21 Z M63,70 L21,70 L21,35 L63,35 L63,70 L63,70 Z" id="Shape" fill="#DDDDDD" mask="url(#mask-2)"></path>
        </g>
    </g>
</svg>