<svg id="SvgjsSvg1023" xmlns="http://www.w3.org/2000/svg" version="1.1" xmlns:xlink="http://www.w3.org/1999/xlink" xmlns:svgjs="http://svgjs.com/svgjs" width="32" height="32"><defs id="SvgjsDefs1024"><clipPath id="SvgjsClipPath1027"><path id="SvgjsPath1026" d="M135 957C135 948.16344 142.16344 941 151 941C159.83656 941 167 948.16344 167 957C167 965.83656 159.83656 973 151 973C142.16344 973 135 965.83656 135 957Z " fill="#ffffff"></path></clipPath></defs><path id="SvgjsPath1025" d="M135 957C135 948.16344 142.16344 941 151 941C159.83656 941 167 948.16344 167 957C167 965.83656 159.83656 973 151 973C142.16344 973 135 965.83656 135 957Z " fill-opacity="0" fill="#ffffff" stroke-dasharray="0" stroke-linejoin="miter" stroke-linecap="butt" stroke-opacity="1" stroke="#00a4ff" stroke-miterlimit="50" stroke-width="4" clip-path="url(&quot;#SvgjsClipPath1027&quot;)" transform="matrix(1,0,0,1,-135,-941)"></path><path id="SvgjsPath1028" d="M151 959.8L154.71 962.5L153.29000000000002 958.14L157.00000000000003 955.5L152.45000000000002 955.5L151.00000000000003 951L149.55000000000004 955.5L145.00000000000003 955.5L148.71000000000004 958.14L147.29000000000005 962.5Z " fill="#00a4ff" fill-opacity="1" transform="matrix(1,0,0,1,-135,-941)"></path></svg>