<?xml version="1.0" encoding="UTF-8"?>
<svg width="64px" height="57px" viewBox="0 0 64 57" version="1.1" xmlns="http://www.w3.org/2000/svg" xmlns:xlink="http://www.w3.org/1999/xlink">
    <!-- Generator: Sketch 40.3 (33839) - http://www.bohemiancoding.com/sketch -->
    <title>ic_home_icon_2_84px</title>
    <desc>Created with Sketch.</desc>
    <defs></defs>
    <g id="Carnovo_Desktop_User" stroke="none" stroke-width="1" fill="none" fill-rule="evenodd">
        <g id="ic_home_icon_2_84px" transform="translate(-10.000000, -17.000000)">
            <polygon id="Shape" points="0 0 84 0 84 84 0 84"></polygon>
            <path d="M66.22,21.035 C65.52,18.97 63.56,17.5 61.25,17.5 L22.75,17.5 C20.44,17.5 18.515,18.97 17.78,21.035 L10.5,42 L10.5,70 C10.5,71.925 12.075,73.5 14,73.5 L17.5,73.5 C19.425,73.5 21,71.925 21,70 L21,66.5 L63,66.5 L63,70 C63,71.925 64.575,73.5 66.5,73.5 L70,73.5 C71.925,73.5 73.5,71.925 73.5,70 L73.5,42 L66.22,21.035 L66.22,21.035 Z M22.75,56 C19.845,56 17.5,53.655 17.5,50.75 C17.5,47.845 19.845,45.5 22.75,45.5 C25.655,45.5 28,47.845 28,50.75 C28,53.655 25.655,56 22.75,56 L22.75,56 Z M61.25,56 C58.345,56 56,53.655 56,50.75 C56,47.845 58.345,45.5 61.25,45.5 C64.155,45.5 66.5,47.845 66.5,50.75 C66.5,53.655 64.155,56 61.25,56 L61.25,56 Z M17.5,38.5 L22.75,22.75 L61.25,22.75 L66.5,38.5 L17.5,38.5 L17.5,38.5 Z" id="Shape" fill="#DDDDDD"></path>
        </g>
    </g>
</svg>