<svg id="SvgjsSvg1011" xmlns="http://www.w3.org/2000/svg" version="1.1" xmlns:xlink="http://www.w3.org/1999/xlink" xmlns:svgjs="http://svgjs.com/svgjs" width="64" height="64"><defs id="SvgjsDefs1012"></defs><path id="SvgjsPath1013" d="M1073 841C1090.66 841 1105 855.34 1105 873C1105 890.66 1090.66 905 1073 905C1055.34 905 1041 890.66 1041 873C1041 855.34 1055.34 841 1073 841ZM1073 901C1088.44 901 1101 888.5 1101 873C1101 857.56 1088.44 845 1073 845C1057.5 845 1045 857.56 1045 873C1045 888.5 1057.5 901 1073 901ZM1070 864C1070 866.22 1068.22 868 1066 868C1063.78 868 1062 866.22 1062 864C1062 861.78 1063.78 860 1066 860C1068.22 860 1070 861.78 1070 864ZM1084 864C1084 866.22 1082.22 868 1080 868C1077.78 868 1076 866.22 1076 864C1076 861.78 1077.78 860 1080 860C1082.22 860 1084 861.78 1084 864ZM1091 879L1055 879C1057.84 885 1064.94 891 1073 891C1081.16 891 1088.22 885 1091 879Z " fill="#ffffff" fill-opacity="1" transform="matrix(1,0,0,1,-1041,-841)"></path></svg>