<svg id="SvgjsSvg1000" xmlns="http://www.w3.org/2000/svg" version="1.1" xmlns:xlink="http://www.w3.org/1999/xlink" xmlns:svgjs="http://svgjs.com/svgjs" width="64" height="64"><defs id="SvgjsDefs1001"></defs><path id="SvgjsPath1007" d="M246 873C246 890.7 260.3 905 278 905C295.7 905 310 890.7 310 873C310 855.3 295.7 841 278 841C260.3 841 246 855.3 246 873ZM250 873C250 857.5 262.5 845 278 845C293.5 845 306 857.5 306 873C306 888.5 293.5 901 278 901C262.5 901 250 888.5 250 873ZM254 873C254 886.2 264.8 897 278 897C291.2 897 302 886.2 302 873C302 859.8 291.2 849 278 849C264.8 849 254 859.8 254 873ZM256 873C256 860.8 265.8 851 278 851C290.2 851 300 860.8 300 873C300 885.2 290.2 895 278 895C265.8 895 256 885.2 256 873ZM283.2 876.8L286.9 879.0999999999999C285.29999999999995 881.8 282.9 884.3 278.5 884.3C272.4 884.3 269 879.5 269 872.5C269 865 272.8 860.7 278.6 860.7C283.1 860.7 285.1 862.8000000000001 286.70000000000005 866.5L282.90000000000003 868.4C281.8 866.3 280.90000000000003 865.1 278.6 865.1C276.5 865.1 274.8 866.2 274 868.7L280.6 868.7L280.6 871.7L273.5 871.7C273.5 871.9000000000001 273.5 872.3000000000001 273.5 872.6C273.5 872.9 273.5 873.2 273.5 873.5L280.6 873.5L280.6 876.5L274 876.5C274.8 878.9 276.5 880 278.6 880C280.8 880 281.90000000000003 878.9 283.20000000000005 876.8Z " fill="#ffffff" fill-opacity="1" transform="matrix(1,0,0,1,-246,-841)"></path></svg>