<?xml version="1.0" encoding="UTF-8"?>
<svg width="70px" height="64px" viewBox="0 0 70 64" version="1.1" xmlns="http://www.w3.org/2000/svg" xmlns:xlink="http://www.w3.org/1999/xlink">
    <!-- Generator: Sketch 40.3 (33839) - http://www.bohemiancoding.com/sketch -->
    <title>ic_home_icon_1_84px</title>
    <desc>Created with Sketch.</desc>
    <defs></defs>
    <g id="Carnovo_Desktop_User" stroke="none" stroke-width="1" fill="none" fill-rule="evenodd">
        <g id="ic_home_icon_1_84px" transform="translate(-7.000000, -10.000000)">
            <polygon id="Shape" points="0 0 84 0 84 84 0 84"></polygon>
            <path d="M12.0365854,59.0706951 C12.9370244,59.7345 13.928122,60.3406829 14.9899024,60.8715732 C19.3023293,63.0274024 24.9923049,64.2804878 31.2439024,64.2804878 C33.2745,64.2804878 35.2420976,64.1245244 37.1259512,63.8725244 C38.2868415,65.2738902 39.6229024,66.5116098 41.0880366,67.5941341 C38.2176951,68.4000732 34.8433537,68.8902439 31.2439024,68.8902439 C25.6169268,68.8902439 20.5269878,67.7216707 17.0543049,65.9853293 C13.5823902,64.2489878 12.0365854,62.1638415 12.0365854,60.4390244 L12.0365854,59.0706951 Z M12.0365854,49.8511829 C12.9431707,50.5195976 13.9457927,51.1180976 15.0137195,51.652061 C19.3261463,53.8078902 24.9923049,55.0609756 31.2439024,55.0609756 C31.7217805,55.0609756 32.1919756,55.054061 32.6606341,55.0371585 C33.0516951,56.6183049 33.6309878,58.1218537 34.3408902,59.550878 C33.3351951,59.6284756 32.2964634,59.6707317 31.2439024,59.6707317 C25.614622,59.6707317 20.5277561,58.5021585 17.0543049,56.7658171 C13.6115854,55.0440732 12.0634756,52.9835122 12.0365854,51.2679146 L12.0365854,51.2195122 L12.0365854,49.8511829 Z M12.0604024,40.6554878 C12.9539268,41.3116098 13.938878,41.9070366 14.9899024,42.4325488 C19.3023293,44.588378 24.9923049,45.8414634 31.2439024,45.8414634 C31.6265122,45.8414634 31.9968293,45.8284024 32.3725244,45.8176463 C32.1512561,47.0738049 32.0121951,48.3645366 32.0121951,49.6829268 C32.0121951,49.9310854 32.0283293,50.1815488 32.0360122,50.4274024 C31.7709512,50.4327805 31.5120366,50.4512195 31.2439024,50.4512195 C25.614622,50.4512195 20.5277561,49.2826463 17.0543049,47.5463049 C13.6592195,45.848378 12.1287805,43.821622 12.0604024,42.120622 L12.0604024,40.6554878 Z M55.0847927,35.8536585 C49.0936463,35.8536585 43.9675976,39.7258537 42.0484024,45.0731707 L40.2237073,45.0731707 C39.0159512,45.1361707 37.9749146,46.2909146 38.0379146,47.4986707 C38.1009146,48.7056585 39.2564268,49.7466951 40.4634146,49.6829268 L41.2317073,49.6829268 C41.2317073,49.9410732 41.2655122,50.1969146 41.2801098,50.4512195 C40.9336098,50.4504512 40.5533049,50.4512195 40.2237073,50.4512195 C39.0159512,50.5142195 37.9749146,51.6689634 38.0379146,52.8767195 C38.1009146,54.0837073 39.2564268,55.1247439 40.4634146,55.0609756 L42.3365122,55.0609756 C44.4470122,60.0210732 49.3725366,63.5121951 55.0847927,63.5121951 C59.4794268,63.5121951 62.6447927,61.4746829 65.1448171,58.9746585 C66.084439,58.1418293 66.1313049,56.4984512 65.2400854,55.613378 C64.3480976,54.7290732 62.7054878,54.7874634 61.8795732,55.7332317 C59.7698415,57.8429634 58.2263415,58.902439 55.0847927,58.902439 C51.9678293,58.902439 49.2419268,57.3988902 47.570122,55.0609756 L55.8292683,55.0609756 C57.0470122,55.0786463 58.1671829,53.9738415 58.1671829,52.7560976 C58.1671829,51.5383537 57.0470122,50.4343171 55.8292683,50.4512195 L45.8898659,50.4512195 C45.869122,50.2007561 45.8414634,49.9395366 45.8414634,49.6829268 L55.8292683,49.6829268 C57.0470122,49.7005976 58.1671829,48.5957927 58.1671829,47.3780488 C58.1671829,46.1603049 57.0470122,45.0562683 55.8292683,45.0731707 L47.089939,45.0731707 C48.6841463,42.3219146 51.6512927,40.4634146 55.0847927,40.4634146 C58.2263415,40.4634146 59.7698415,41.4990732 61.8795732,43.6088049 C62.7054878,44.5545732 64.3480976,44.6137317 65.2400854,43.7286585 C66.1313049,42.8435854 66.084439,41.2009756 65.1448171,40.367378 C62.6447927,37.8673537 59.4794268,35.8536585 55.0847927,35.8536585 L55.0847927,35.8536585 Z M54.2926829,32.0121951 C64.0791951,32.0121951 71.9634146,39.8964146 71.9634146,49.6829268 C71.9634146,59.469439 64.0791951,67.3536585 54.2926829,67.3536585 C44.5061707,67.3536585 36.6219512,59.469439 36.6219512,49.6829268 C36.6219512,39.8964146 44.5061707,32.0121951 54.2926829,32.0121951 L54.2926829,32.0121951 Z M12.0604024,31.4597927 C12.9539268,32.1182195 13.938878,32.7113415 14.9899024,33.2368537 C19.3023293,35.3926829 24.9923049,36.6219512 31.2439024,36.6219512 C33.0501585,36.6219512 34.8087805,36.5090122 36.5020976,36.3100244 C35.3880732,37.7889878 34.4392317,39.4047073 33.7170366,41.1356707 C32.9087927,41.1871463 32.0805732,41.2317073 31.2439024,41.2317073 C25.614622,41.2317073 20.5277561,40.0639024 17.0543049,38.3267927 C13.6899512,36.6442317 12.1549024,34.6405244 12.0604024,32.9487439 L12.0604024,31.4597927 Z M31.2439024,15.1097561 C36.8731829,15.1097561 41.9600488,16.2783293 45.4335,18.0146707 C48.9069512,19.7517805 50.4512195,21.8369268 50.4512195,23.5609756 C50.4512195,25.2857927 48.9069512,27.3701707 45.4335,29.1072805 C41.9600488,30.8443902 36.8731829,32.0121951 31.2439024,32.0121951 C25.614622,32.0121951 20.5277561,30.8443902 17.0543049,29.1072805 C14.715622,27.6782561 12.2593902,25.8958171 12.0604024,23.3450854 C12.1802561,21.6632927 13.7206829,19.6818659 17.0543049,18.0146707 C20.5277561,16.2783293 25.614622,15.1097561 31.2439024,15.1097561 L31.2439024,15.1097561 Z M31.2439024,10.5 C24.9923049,10.5 19.3023293,11.7292683 14.9899024,13.8850976 C10.9471463,15.9072439 7.84785366,18.9481463 7.47523171,22.7926829 L7.42682927,51.3155488 L7.42682927,60.4390244 C7.42682927,64.6546463 10.6782439,67.9344878 14.9899024,70.0910854 C19.3007927,72.2469146 24.9938415,73.5 31.2439024,73.5 C37.0260732,73.5 42.2911829,72.4144024 46.4660854,70.5474512 C48.9008049,71.4640244 51.5421951,71.9634146 54.2926829,71.9634146 C66.5707683,71.9634146 76.5731707,61.9610122 76.5731707,49.6829268 C76.5731707,37.6614512 66.9871829,27.8319146 55.0609756,27.4262561 L55.0609756,25.097561 L55.0609756,23.5609756 L55.0609756,22.7926829 L55.0133415,22.7926829 C54.6399512,18.9481463 51.5406585,15.9072439 47.4979024,13.8850976 C43.1854756,11.7292683 37.4955,10.5 31.2439024,10.5 L31.2439024,10.5 Z" id="Fill-1" fill="#DDDDDD"></path>
        </g>
    </g>
</svg>