<svg id="SvgjsSvg1008" xmlns="http://www.w3.org/2000/svg" version="1.1" xmlns:xlink="http://www.w3.org/1999/xlink" xmlns:svgjs="http://svgjs.com/svgjs" width="64" height="64"><defs id="SvgjsDefs1009"></defs><path id="SvgjsPath1010" d="M703 845C705.22 845 707 846.78 707 849L707 861.94C707 872.6600000000001 700.5 880.84 690.28 883.22C688.16 885.84 685.78 887.72 683 888.94L683 889.44C688.72 891.94 693 896.6600000000001 693 901C693 903.22 691.22 905 689 905L661 905C658.78 905 657 903.22 657 901C657 896.65 661.28 891.94 667 889.44L667 888.94C664.22 887.72 661.84 885.85 659.72 883.22C649.5 880.84 643 872.6600000000001 643 861.94L643 849C643 846.78 644.78 845 647 845L653 845C653 842.78 654.78 841 657 841L693 841C695.22 841 697 842.78 697 845ZM703 861.94L703 849L693 849L693 845L657 845L657 849L647 849L647 861.94C647 872.0600000000001 653.5 878.22 661.94 879.5600000000001C664.2800000000001 882.85 667 884.94 671 886.0000000000001L671 892.2200000000001C665 893.8500000000001 661 898.3500000000001 661 901.0000000000001L689 901.0000000000001C689 898.3500000000001 685 893.8500000000001 679 892.2200000000001L679 886.0000000000001C683 884.9400000000002 685.66 882.8400000000001 688 879.5600000000001C696.5 878.22 703 872.0600000000001 703 861.94ZM657 853L657 862.35C657 867.0600000000001 657.72 871.16 659.06 874.5600000000001C654.56 872.7800000000001 651 870.0000000000001 651 863.0000000000001L651 853.0000000000001ZM693 862.34L693 853L699 853L699 863C699 870 695.44 872.78 690.94 874.56C692.2800000000001 871.16 693 867.06 693 862.3399999999999ZM675 850.65L671.56 857.93L664 859.06L669.5 864.7199999999999L668.22 872.66L675 868.9399999999999L681.78 872.66L680.5 864.7199999999999L686 859.06L678.44 857.9399999999999Z " fill="#ffffff" fill-opacity="1" transform="matrix(1,0,0,1,-643,-841)"></path></svg>