<?xml version="1.0" encoding="UTF-8"?>
<svg width="255px" height="141px" viewBox="0 0 255 141" version="1.1" xmlns="http://www.w3.org/2000/svg" xmlns:xlink="http://www.w3.org/1999/xlink">
    <!-- Generator: Sketch 40.3 (33839) - http://www.bohemiancoding.com/sketch -->
    <title>Illustration_1</title>
    <desc>Created with Sketch.</desc>
    <defs></defs>
    <g id="Page-1" stroke="none" stroke-width="1" fill="none" fill-rule="evenodd">
        <g id="Illustration_1">
            <path d="M175.5,20.5 L175.5,105.5 L38.5,105.5 L38.5,20.5 C38.5,16.1 42.1,12.5 46.5,12.5 L167.5,12.5 C171.9,12.5 175.5,16.1 175.5,20.5 L175.5,20.5 L175.5,20.5 L175.5,20.5 Z" id="Fill-1" fill="#E8EDF1"></path>
            <path d="M216.5,107 L1.5,107 C0.7,107 0,106.3 0,105.5 C0,104.7 0.7,104 1.5,104 L216.5,104 C217.3,104 218,104.7 218,105.5 C218,106.3 217.3,107 216.5,107" id="Fill-3" fill="#444E58"></path>
            <g id="Group-7" transform="translate(35.000000, 0.755000)" fill="#444E58">
                <g id="Fill-5-Clipped">
                    <path d="M141.5,3.2 L1.5,3.2 C0.7,3.2 0,2.6 0,1.7 C0,0.8 0.7,0.2 1.5,0.2 L141.5,0.2 C142.3,0.2 143,0.9 143,1.7 C143,2.5 142.3,3.2 141.5,3.2" id="Fill-5"></path>
                </g>
            </g>
            <path d="M205.5,118 L12.5,118 C11.7,118 11,117.3 11,116.5 C11,115.7 11.7,115 12.5,115 L205.5,115 C206.3,115 207,115.7 207,116.5 C207,117.3 206.3,118 205.5,118" id="Fill-8" fill="#444E58"></path>
            <path d="M205.5,118 C204.7,118 204,117.3 204,116.5 C204,115.7 204.7,115 205.5,115 C210.7,115 215,110.7 215,105.5 C215,104.7 215.7,104 216.5,104 C217.3,104 218,104.7 218,105.5 C218,112.4 212.4,118 205.5,118" id="Fill-10" fill="#444E58"></path>
            <path d="M12.5,118 C5.6,118 0,112.4 0,105.5 C0,104.7 0.7,104 1.5,104 C2.3,104 3,104.7 3,105.5 C3,110.7 7.3,115 12.5,115 C13.3,115 14,115.7 14,116.5 C14,117.3 13.3,118 12.5,118" id="Fill-12" fill="#444E58"></path>
            <path d="M94.5,113 C90.4,113 87,109.6 87,105.5 C87,104.7 87.7,104 88.5,104 C89.3,104 90,104.7 90,105.5 C90,108 92,110 94.5,110 C95.3,110 96,110.7 96,111.5 C96,112.3 95.3,113 94.5,113" id="Fill-14" fill="#444E58"></path>
            <path d="M118.5,113 C117.7,113 117,112.3 117,111.5 C117,110.7 117.7,110 118.5,110 C121,110 123,108 123,105.5 C123,104.7 123.7,104 124.5,104 C125.3,104 126,104.7 126,105.5 C126,109.6 122.6,113 118.5,113" id="Fill-16" fill="#444E58"></path>
            <path d="M118.5,113 L94.5,113 C93.7,113 93,112.3 93,111.5 C93,110.7 93.7,110 94.5,110 L118.5,110 C119.3,110 120,110.7 120,111.5 C120,112.3 119.3,113 118.5,113" id="Fill-18" fill="#444E58"></path>
            <path d="M184.5,107 C183.7,107 183,106.3 183,105.5 L183,10.5 C183,9.7 183.7,9 184.5,9 C185.3,9 186,9.7 186,10.5 L186,105.5 C186,106.3 185.3,107 184.5,107" id="Fill-20" fill="#444E58"></path>
            <path d="M175.5,107 C174.7,107 174,106.3 174,105.5 L174,20.5 C174,19.7 174.7,19 175.5,19 C176.3,19 177,19.7 177,20.5 L177,105.5 C177,106.3 176.3,107 175.5,107" id="Fill-22" fill="#444E58"></path>
            <g id="Group-26" transform="translate(175.000000, 0.755000)" fill="#444E58">
                <g id="Fill-24-Clipped">
                    <path d="M9.5,11.2 C8.7,11.2 8,10.6 8,9.7 C8,6.1 5.1,3.2 1.5,3.2 C0.7,3.2 0,2.6 0,1.7 C0,0.8 0.7,0.2 1.5,0.2 C6.7,0.2 11,4.5 11,9.7 C11,10.6 10.3,11.2 9.5,11.2" id="Fill-24"></path>
                </g>
            </g>
            <path d="M175.5,22 C174.7,22 174,21.3 174,20.5 C174,16.9 171.1,14 167.5,14 C166.7,14 166,13.3 166,12.5 C166,11.7 166.7,11 167.5,11 C172.7,11 177,15.3 177,20.5 C177,21.3 176.3,22 175.5,22" id="Fill-27" fill="#444E58"></path>
            <path d="M28.5,107 C27.7,107 27,106.3 27,105.5 L27,10.5 C27,9.7 27.7,9 28.5,9 C29.3,9 30,9.7 30,10.5 L30,105.5 C30,106.3 29.3,107 28.5,107" id="Fill-29" fill="#444E58"></path>
            <g id="Group-33" transform="translate(27.000000, 0.755000)" fill="#444E58">
                <g id="Fill-31-Clipped">
                    <path d="M1.5,11.2 C0.7,11.2 0,10.6 0,9.7 C0,4.5 4.3,0.2 9.5,0.2 C10.3,0.2 11,0.9 11,1.7 C11,2.5 10.3,3.2 9.5,3.2 C5.9,3.2 3,6.2 3,9.7 C3,10.6 2.3,11.2 1.5,11.2" id="Fill-31"></path>
                </g>
            </g>
            <path d="M167.5,14 L46.5,14 C45.7,14 45,13.3 45,12.5 C45,11.7 45.7,11 46.5,11 L167.5,11 C168.3,11 169,11.7 169,12.5 C169,13.3 168.3,14 167.5,14" id="Fill-34" fill="#444E58"></path>
            <path d="M38.5,107 C37.7,107 37,106.3 37,105.5 L37,20.5 C37,19.7 37.7,19 38.5,19 C39.3,19 40,19.7 40,20.5 L40,105.5 C40,106.3 39.3,107 38.5,107" id="Fill-36" fill="#444E58"></path>
            <path d="M38.5,22 C37.7,22 37,21.3 37,20.5 C37,15.3 41.3,11 46.5,11 C47.3,11 48,11.7 48,12.5 C48,13.3 47.3,14 46.5,14 C42.9,14 40,16.9 40,20.5 C40,21.3 39.3,22 38.5,22" id="Fill-38" fill="#444E58"></path>
            <path d="M84.7,84.5 L56.3,84.5 C54.7,84.5 53.5,83.2 53.5,81.7 L53.5,35.3 C53.5,33.7 54.8,32.5 56.3,32.5 L84.6,32.5 C86.2,32.5 87.4,33.8 87.4,35.3 L87.4,81.6 C87.5,83.2 86.2,84.5 84.7,84.5" id="Fill-40" fill="#DDE0E4"></path>
            <path d="M123.7,84.5 L95.3,84.5 C93.7,84.5 92.5,83.2 92.5,81.7 L92.5,35.3 C92.5,33.7 93.8,32.5 95.3,32.5 L123.6,32.5 C125.2,32.5 126.4,33.8 126.4,35.3 L126.4,81.6 C126.5,83.2 125.2,84.5 123.7,84.5" id="Fill-42" fill="#DDE0E4"></path>
            <path d="M162.7,84.5 L134.4,84.5 C132.8,84.5 131.6,83.2 131.6,81.7 L131.6,35.3 C131.6,33.7 132.9,32.5 134.4,32.5 L162.7,32.5 C164.3,32.5 165.5,33.8 165.5,35.3 L165.5,81.6 C165.5,83.2 164.2,84.5 162.7,84.5" id="Fill-44" fill="#DDE0E4"></path>
            <path d="M83.7,83.5 L55.3,83.5 C53.7,83.5 52.5,82.2 52.5,80.7 L52.5,34.3 C52.5,32.7 53.8,31.5 55.3,31.5 L83.6,31.5 C85.2,31.5 86.4,32.8 86.4,34.3 L86.4,80.6 C86.5,82.2 85.2,83.5 83.7,83.5" id="Fill-46" fill="#FFFFFF"></path>
            <path d="M80.2,61.5 L58.8,61.5 C57.2,61.5 56,60.2 56,58.7 L56,38.7 C56,37.1 57.3,35.9 58.8,35.9 L80.2,35.9 C81.8,35.9 83,37.2 83,38.7 L83,58.7 C83,60.2 81.7,61.5 80.2,61.5" id="Fill-48" fill="#99D0A7"></path>
            <g id="Fill-50-Clipped" transform="translate(56.000000, 71.000000)" fill="#E8EDF1">
                <polygon id="Fill-50" points="0.9 3.5 26.1 3.5 26.1 0.5 0.9 0.5"></polygon>
            </g>
            <g id="Fill-52-Clipped" transform="translate(56.000000, 76.000000)" fill="#E8EDF1">
                <polygon id="Fill-52" points="0.9 3.5 26.1 3.5 26.1 0.5 0.9 0.5"></polygon>
            </g>
            <g id="Fill-53-Clipped" transform="translate(91.000000, 31.000000)" fill="#FFFFFF">
                <path d="M31.7,52.5 L3.3,52.5 C1.7,52.5 0.5,51.2 0.5,49.7 L0.5,3.3 C0.5,1.7 1.8,0.5 3.3,0.5 L31.6,0.5 C33.2,0.5 34.4,1.8 34.4,3.3 L34.4,49.6 C34.5,51.2 33.2,52.5 31.7,52.5" id="Fill-53"></path>
            </g>
            <g id="Fill-54-Clipped" transform="translate(95.000000, 35.000000)" fill="#F1958B">
                <path d="M24.2,26.5 L2.8,26.5 C1.2,26.5 0,25.2 0,23.7 L0,3.7 C0,2.1 1.3,0.9 2.8,0.9 L24.2,0.9 C25.8,0.9 27,2.2 27,3.7 L27,23.7 C27,25.2 25.7,26.5 24.2,26.5" id="Fill-54"></path>
            </g>
            <g id="Fill-55-Clipped" transform="translate(95.000000, 71.000000)" fill="#E8EDF1">
                <polygon id="Fill-55" points="0.9 3.5 26.1 3.5 26.1 0.5 0.9 0.5"></polygon>
            </g>
            <g id="Fill-56-Clipped" transform="translate(95.000000, 76.000000)" fill="#E8EDF1">
                <polygon id="Fill-56" points="0.9 3.5 26.1 3.5 26.1 0.5 0.9 0.5"></polygon>
            </g>
            <g id="Fill-57-Clipped" transform="translate(130.000000, 31.000000)" fill="#FFFFFF">
                <path d="M31.7,52.5 L3.4,52.5 C1.8,52.5 0.6,51.2 0.6,49.7 L0.6,3.3 C0.6,1.7 1.9,0.5 3.4,0.5 L31.7,0.5 C33.3,0.5 34.5,1.8 34.5,3.3 L34.5,49.6 C34.5,51.2 33.2,52.5 31.7,52.5" id="Fill-57"></path>
            </g>
            <g id="Fill-58-Clipped" transform="translate(134.000000, 35.000000)" fill="#A5D5EE">
                <path d="M24.2,26.5 L2.8,26.5 C1.2,26.5 -2.84217094e-14,25.2 -2.84217094e-14,23.7 L-2.84217094e-14,3.7 C-2.84217094e-14,2.1 1.3,0.9 2.8,0.9 L24.2,0.9 C25.8,0.9 27,2.2 27,3.7 L27,23.7 C27,25.2 25.7,26.5 24.2,26.5" id="Fill-58"></path>
            </g>
            <g id="Fill-59-Clipped" transform="translate(134.000000, 71.000000)" fill="#E8EDF1">
                <polygon id="Fill-59" points="0.9 3.5 26.1 3.5 26.1 0.5 0.9 0.5"></polygon>
            </g>
            <g id="Fill-60-Clipped" transform="translate(134.000000, 76.000000)" fill="#E8EDF1">
                <polygon id="Fill-60" points="0.9 3.5 26.1 3.5 26.1 0.5 0.9 0.5"></polygon>
            </g>
            <g id="Fill-61-Clipped" transform="translate(200.000000, 75.000000)" fill="#DEEBF7">
                <path d="M0.7,5.6 C0.5,5.6 0.3,5.5 0.2,5.3 C2.5701663e-14,5 0.1,4.6 0.4,4.5 C5.1,1.7 10.5,0.3 16,0.3 C16.3,0.3 16.6,0.6 16.6,0.9 C16.6,1.2 16.3,1.5 16,1.5 C10.7,1.5 5.6,2.9 1,5.6 C0.9,5.6 0.8,5.6 0.7,5.6" id="Fill-61"></path>
            </g>
            <g id="Fill-62-Clipped" transform="translate(229.000000, 78.000000)" fill="#DEEBF7">
                <path d="M17.1,29.7 L17.1,29.7 C16.7,29.7 16.5,29.4 16.5,29.1 L16.5,29 L16.5,28.1 C16.5,17 10.4,7 0.6,1.9 C0.3,1.7 0.2,1.4 0.3,1.1 C0.5,0.8 0.8,0.7 1.1,0.8 C11.3,6.1 17.7,16.6 17.7,28.1 L17.7,29.1 L17.7,29.2 C17.7,29.4 17.4,29.7 17.1,29.7" id="Fill-62"></path>
            </g>
            <g id="Fill-63-Clipped" transform="translate(185.000000, 87.000000)" fill="#DEEBF7">
                <path d="M13.3,44.1 C13.2,44.1 13,44.1 12.9,44 C4.9,38.2 0.1,28.9 0.1,19 C0.1,12.4 2.1,6.2 6,0.9 C6.2,0.6 6.6,0.6 6.9,0.8 C7.2,1 7.2,1.4 7,1.7 C3.3,6.8 1.3,12.8 1.3,19.1 C1.3,28.5 5.9,37.5 13.5,43.1 C13.8,43.3 13.8,43.7 13.6,44 C13.6,44 13.4,44.1 13.3,44.1" id="Fill-63"></path>
            </g>
            <g id="Fill-64-Clipped" transform="translate(215.000000, 131.000000)" fill="#DEEBF7">
                <path d="M0.9,5.8 C0.6,5.8 0.3,5.5 0.3,5.2 C0.3,4.9 0.6,4.6 0.9,4.6 C6.3,4.6 11.5,3.1 16.1,0.4 C16.4,0.2 16.8,0.3 16.9,0.6 C17.1,0.9 17,1.3 16.7,1.4 C12,4.3 6.5,5.8 0.9,5.8" id="Fill-64"></path>
            </g>
            <g id="Fill-65-Clipped" transform="translate(176.000000, 106.000000)" fill="#DEEBF7">
                <path d="M17.6,33.3 C17.5,33.3 17.5,33.3 17.4,33.2 C6.6,25.8 0.1,13.5 0.1,0.4 C0.1,0.2 0.2,0.1 0.4,0.1 C0.6,0.1 0.7,0.2 0.7,0.4 C0.7,13.3 7,25.3 17.7,32.7 C17.8,32.8 17.9,33 17.8,33.1 C17.8,33.3 17.7,33.3 17.6,33.3" id="Fill-65"></path>
            </g>
            <g id="Fill-66-Clipped" transform="translate(180.000000, 71.000000)" fill="#DEEBF7">
                <path d="M0.6,15.4 L0.4,15.4 C0.3,15.3 0.2,15.1 0.3,15 C3.7,9.2 8.6,4.3 14.4,0.8 C14.5,0.7 14.7,0.8 14.8,0.9 C14.9,1 14.8,1.2 14.7,1.3 C9,4.7 4.2,9.5 0.8,15.2 C0.8,15.4 0.7,15.4 0.6,15.4" id="Fill-66"></path>
            </g>
            <g id="Fill-67-Clipped" transform="translate(234.000000, 111.000000)" fill="#DEEBF7">
                <path d="M0.6,29.8 C0.5,29.8 0.4,29.7 0.3,29.6 C0.2,29.5 0.3,29.3 0.4,29.2 C10.7,23 17.5,12.7 19.1,0.8 C19.1,0.6 19.3,0.5 19.4,0.5 C19.6,0.5 19.7,0.7 19.7,0.8 C18.1,12.8 11.2,23.3 0.7,29.6 C0.7,29.7 0.7,29.8 0.6,29.8" id="Fill-67"></path>
            </g>
            <g id="Fill-68-Clipped" transform="translate(215.000000, 66.000000)" fill="#DEEBF7">
                <path d="M19.9,5.8 L19.8,5.8 C14,2.6 7.5,1 0.9,1 C0.7,1 0.6,0.9 0.6,0.7 C0.6,0.5 0.7,0.4 0.9,0.4 C7.6,0.4 14.2,2.1 20.1,5.3 C20.2,5.4 20.3,5.6 20.2,5.7 C20.1,5.7 20,5.8 19.9,5.8" id="Fill-68"></path>
            </g>
            <g id="Fill-69-Clipped" transform="translate(193.000000, 84.000000)" fill="#E8EDF1">
                <path d="M46.9,23.5 C46.9,36.3 36.6,46.6 23.8,46.6 C11,46.6 0.7,36.3 0.7,23.5 C0.7,10.7 11,0.4 23.8,0.4 C36.5,0.4 46.9,10.8 46.9,23.5" id="Fill-69"></path>
            </g>
            <g id="Fill-70-Clipped" transform="translate(191.000000, 82.000000)" fill="#FDE486">
                <path d="M47.1,23.4 C47.1,36.2 36.8,46.5 24,46.5 C11.2,46.5 0.9,36.2 0.9,23.4 C0.9,10.6 11.2,0.3 24,0.3 C36.7,0.3 47.1,10.6 47.1,23.4" id="Fill-70"></path>
            </g>
            <g id="Fill-71-Clipped" transform="translate(191.000000, 81.000000)" fill="#FBC003">
                <path d="M24,2.2 C11.8,2.2 1.8,12.1 1.8,24.4 C1.8,36.6 11.7,46.6 24,46.6 C36.2,46.6 46.2,36.7 46.2,24.4 C46.1,12.1 36.2,2.2 24,2.2 M24,48.4 C10.8,48.4 0,37.6 0,24.4 C0,11.2 10.8,0.4 24,0.4 C37.2,0.4 48,11.2 48,24.4 C48,37.6 37.2,48.4 24,48.4" id="Fill-71"></path>
            </g>
            <g id="Fill-72-Clipped" transform="translate(204.000000, 95.000000)" fill="#FFFFFF">
                <path d="M15.8,7.6 C15.8,11.7 12.5,15.1 8.3,15.1 C4.2,15.1 0.8,11.8 0.8,7.6 C0.8,3.5 4.1,0.1 8.3,0.1 C12.5,0.2 15.8,3.5 15.8,7.6" id="Fill-72"></path>
            </g>
            <g id="Fill-73-Clipped" transform="translate(203.000000, 94.000000)" fill="#444E58">
                <path d="M9.3,2.1 C5.7,2.1 2.8,5 2.8,8.6 C2.8,12.2 5.7,15.1 9.3,15.1 C12.9,15.1 15.8,12.2 15.8,8.6 C15.9,5 13,2.1 9.3,2.1 M9.3,17 C4.7,17 0.9,13.2 0.9,8.6 C0.9,4 4.7,0.2 9.3,0.2 C13.9,0.2 17.7,4 17.7,8.6 C17.7,13.2 14,17 9.3,17" id="Fill-73"></path>
            </g>
            <g id="Fill-74-Clipped" transform="translate(208.000000, 98.000000)" fill="#FFFFFF">
                <path d="M0.5,4.3 C0.5,2.3 2.2,0.6 4.2,0.6" id="Fill-74"></path>
            </g>
            <g id="Fill-75-Clipped" transform="translate(207.000000, 98.000000)" fill="#444E58">
                <path d="M1.5,4.9 C1.2,4.9 0.9,4.6 0.9,4.3 C0.9,1.9 2.8,1.42108547e-14 5.2,1.42108547e-14 C5.5,1.42108547e-14 5.8,0.3 5.8,0.6 C5.8,0.9 5.5,1.2 5.2,1.2 C3.5,1.2 2.1,2.6 2.1,4.3 C2.1,4.6 1.8,4.9 1.5,4.9" id="Fill-75"></path>
            </g>
            <g id="Fill-76-Clipped" transform="translate(218.000000, 109.000000)" fill="#444E58">
                <path d="M7.1,7.5 C6.9,7.5 6.6,7.4 6.4,7.2 L0.8,1.6 C0.4,1.2 0.4,0.7 0.8,0.3 C1.2,-0.1 1.7,-0.1 2.1,0.3 L7.7,5.9 C8.1,6.3 8.1,6.8 7.7,7.2 C7.5,7.4 7.3,7.5 7.1,7.5" id="Fill-76"></path>
            </g>
            <g id="Fill-77-Clipped" transform="translate(199.000000, 74.000000)" fill="#FBC003">
                <path d="M0.7,6 C0.5,6 0.3,5.9 0.2,5.7 C2.5701663e-14,5.4 0.1,5 0.4,4.9 C5.1,2.1 10.5,0.7 16,0.7 C16.3,0.7 16.6,1 16.6,1.3 C16.6,1.6 16.3,1.9 16,1.9 C10.7,1.9 5.6,3.3 1,6 C0.9,5.9 0.8,6 0.7,6" id="Fill-77"></path>
            </g>
            <g id="Fill-78-Clipped" transform="translate(228.000000, 77.000000)" fill="#FBC003">
                <path d="M17.1,30 L17.1,30 C16.7,30 16.5,29.7 16.5,29.4 L16.5,29.2 L16.5,28.3 C16.5,17.2 10.4,7.2 0.6,2.1 C0.3,1.9 0.2,1.6 0.3,1.3 C0.5,1 0.8,0.9 1.1,1 C11.3,6.3 17.7,16.8 17.7,28.3 L17.7,29.2 L17.7,29.4 C17.7,29.8 17.5,30 17.1,30" id="Fill-78"></path>
            </g>
            <g id="Fill-79-Clipped" transform="translate(184.000000, 86.000000)" fill="#FBC003">
                <path d="M13.3,44.4 C13.2,44.4 13,44.4 12.9,44.3 C4.9,38.5 0.1,29.2 0.1,19.3 C0.1,12.7 2.1,6.5 6,1.2 C6.2,0.9 6.6,0.9 6.9,1.1 C7.2,1.3 7.2,1.7 7,2 C3.3,7.1 1.3,13.1 1.3,19.4 C1.3,28.8 5.9,37.8 13.5,43.4 C13.8,43.6 13.8,44 13.6,44.3 C13.7,44.3 13.5,44.4 13.3,44.4" id="Fill-79"></path>
            </g>
            <g id="Fill-80-Clipped" transform="translate(214.000000, 130.000000)" fill="#FBC003">
                <path d="M1,6.2 C0.7,6.2 0.4,5.9 0.4,5.6 C0.4,5.3 0.7,5 1,5 C6.4,5 11.6,3.5 16.2,0.8 C16.5,0.6 16.9,0.7 17,1 C17.2,1.3 17.1,1.7 16.8,1.8 C12.1,4.6 6.6,6.2 1,6.2" id="Fill-80"></path>
            </g>
            <g id="Fill-81-Clipped" transform="translate(175.000000, 105.000000)" fill="#FBC003">
                <path d="M17.6,33.6 C17.5,33.6 17.5,33.6 17.4,33.5 C6.6,26.1 0.1,13.8 0.1,0.7 C0.1,0.5 0.2,0.4 0.4,0.4 C0.6,0.4 0.7,0.5 0.7,0.7 C0.7,13.6 7,25.6 17.7,33 C17.8,33.1 17.9,33.3 17.8,33.4 C17.8,33.6 17.7,33.6 17.6,33.6" id="Fill-81"></path>
            </g>
            <g id="Fill-82-Clipped" transform="translate(180.000000, 71.000000)" fill="#FBC003">
                <path d="M0.9,14.8 L0.7,14.8 C0.6,14.7 0.5,14.5 0.6,14.4 C4,8.6 8.9,3.7 14.7,0.2 C14.8,0.1 15,0.2 15.1,0.3 C15.2,0.4 15.1,0.6 15,0.7 C9.3,4.1 4.5,8.9 1.1,14.6 C1.1,14.7 1,14.8 0.9,14.8" id="Fill-82"></path>
            </g>
            <g id="Fill-83-Clipped" transform="translate(234.000000, 110.000000)" fill="#FBC003">
                <path d="M1.2,30.1 C1.1,30.1 1,30 0.9,29.9 C0.8,29.8 0.9,29.6 1,29.5 C11.3,23.3 18.1,13 19.7,1.1 C19.7,0.9 19.9,0.8 20,0.8 C20.2,0.8 20.3,1 20.3,1.1 C18.7,13.1 11.8,23.6 1.3,29.9 C1.3,30.1 1.3,30.1 1.2,30.1" id="Fill-83"></path>
            </g>
            <g id="Fill-84-Clipped" transform="translate(214.000000, 65.000000)" fill="#FBC003">
                <path d="M20,6.1 L19.9,6.1 C14.1,2.9 7.6,1.3 1,1.3 C0.8,1.3 0.7,1.2 0.7,1 C0.7,0.8 0.8,0.7 1,0.7 C7.7,0.7 14.3,2.4 20.2,5.6 C20.3,5.7 20.4,5.9 20.3,6 C20.2,6.1 20.1,6.1 20,6.1" id="Fill-84"></path>
            </g>
        </g>
    </g>
</svg>