<svg id="SvgjsSvg1017" xmlns="http://www.w3.org/2000/svg" version="1.1" xmlns:xlink="http://www.w3.org/1999/xlink" xmlns:svgjs="http://svgjs.com/svgjs" width="32" height="32"><defs id="SvgjsDefs1018"><clipPath id="SvgjsClipPath1022"><path id="SvgjsPath1021" d="M135 853C135 844.16344 142.16344 837 151 837C159.83656 837 167 844.16344 167 853C167 861.83656 159.83656 869 151 869C142.16344 869 135 861.83656 135 853Z " fill="#ffffff"></path></clipPath></defs><path id="SvgjsPath1019" d="M149.2 855.95L146.04999999999998 852.8000000000001L144.99999999999997 853.85L149.19999999999996 858.0500000000001L158.19999999999996 849.0500000000001L157.14999999999995 848.0000000000001L149.19999999999996 855.9500000000002Z " fill="#2ecc71" fill-opacity="1" transform="matrix(1,0,0,1,-135,-837)"></path><path id="SvgjsPath1020" d="M135 853C135 844.16344 142.16344 837 151 837C159.83656 837 167 844.16344 167 853C167 861.83656 159.83656 869 151 869C142.16344 869 135 861.83656 135 853Z " fill-opacity="0" fill="#ffffff" stroke-dasharray="0" stroke-linejoin="miter" stroke-linecap="butt" stroke-opacity="1" stroke="#2ecc71" stroke-miterlimit="50" stroke-width="4" clip-path="url(&quot;#SvgjsClipPath1022&quot;)" transform="matrix(1,0,0,1,-135,-837)"></path></svg>