<?xml version="1.0" encoding="utf-8"?>
<!-- Generator: Adobe Illustrator 15.0.0, SVG Export Plug-In . SVG Version: 6.00 Build 0)  -->
<!DOCTYPE svg PUBLIC "-//W3C//DTD SVG 1.1//EN" "http://www.w3.org/Graphics/SVG/1.1/DTD/svg11.dtd">
<svg version="1.1" id="Layer_1" xmlns="http://www.w3.org/2000/svg" xmlns:xlink="http://www.w3.org/1999/xlink" x="0px" y="0px"
	 width="18px" height="18px" viewBox="0 0 18 18" enable-background="new 0 0 18 18" xml:space="preserve">
<g>
	<path fill="#9D9D9D" d="M8.984,18c-4.972,0-9.016-4.045-9.016-9.016c0-4.972,4.044-9.016,9.016-9.016
		C13.955-0.032,18,4.012,18,8.984C18,13.955,13.955,18,8.984,18z M8.984,0.917c-4.448,0-8.067,3.619-8.067,8.067
		c0,4.448,3.619,8.067,8.067,8.067c4.448,0,8.067-3.619,8.067-8.067C17.051,4.536,13.432,0.917,8.984,0.917z"/>
</g>
<path fill="none" d="M3,9c0-3.31,2.69-6,6-6l0,0c3.311,0,6,2.69,6,6l0,0c0,3.311-2.689,6-6,6l0,0C5.69,15,3,12.311,3,9L3,9z"/>
</svg>
