<svg id="SvgjsSvg1008" xmlns="http://www.w3.org/2000/svg" version="1.1" xmlns:xlink="http://www.w3.org/1999/xlink" xmlns:svgjs="http://svgjs.com/svgjs" width="146" height="24"><defs id="SvgjsDefs1009"></defs><path id="SvgjsPath1010" d="M124.35 39.59C123.78 39.59 123.3 39.870000000000005 123.00999999999999 40.11000000000001C121.66999999999999 41.230000000000004 120.16999999999999 41.99000000000001 118.22999999999999 41.980000000000004C114.47999999999999 41.96 111.86999999999999 38.910000000000004 111.88999999999999 35.120000000000005L111.88999999999999 35.040000000000006C111.90999999999998 31.320000000000007 114.54999999999998 28.260000000000005 118.10999999999999 28.28000000000001C120.04999999999998 28.29000000000001 121.41999999999999 29.070000000000007 122.65999999999998 30.120000000000008C122.97999999999998 30.370000000000008 123.50999999999998 30.610000000000007 124.11999999999998 30.620000000000008C125.36999999999998 30.620000000000008 126.37999999999998 29.660000000000007 126.38999999999997 28.410000000000007C126.38999999999997 27.60000000000001 125.94999999999997 26.99000000000001 125.62999999999997 26.710000000000008C123.81999999999996 25.120000000000008 121.51999999999997 24.020000000000007 118.16999999999997 24.000000000000007C111.74999999999997 23.970000000000006 107.02999999999997 29.03000000000001 106.99999999999997 35.09L106.99999999999997 35.17C106.96999999999997 41.230000000000004 111.62999999999997 46.230000000000004 117.96999999999997 46.260000000000005C121.52999999999997 46.28000000000001 123.82999999999997 45.080000000000005 125.73999999999997 43.27C126.18999999999997 42.910000000000004 126.42999999999996 42.39 126.43999999999997 41.74C126.44999999999997 40.57 125.51999999999997 39.6 124.34999999999997 39.59 " fill="#ffffff" fill-opacity="1" transform="matrix(1,0,0,1,-107,-24)"></path><path id="SvgjsPath1011" d="M141.63 37.96C141.62 40.67 139.14 42.52 135.91 42.5C133.57 42.49 131.76 41.3 131.77 39.24L131.77 39.160000000000004C131.78 36.940000000000005 133.65 35.620000000000005 136.8 35.63C138.74 35.650000000000006 140.39000000000001 36.02 141.64000000000001 36.510000000000005ZM130.11 25.21C129.38000000000002 25.490000000000002 128.77 26.26 128.76000000000002 27.150000000000002C128.76000000000002 28.28 129.68 29.17 130.81000000000003 29.180000000000003C131.05000000000004 29.180000000000003 131.30000000000004 29.140000000000004 131.58000000000004 29.060000000000002C132.92000000000004 28.540000000000003 134.45000000000005 28.230000000000004 136.31000000000003 28.240000000000002C139.75000000000003 28.26 141.60000000000002 29.880000000000003 141.58000000000004 32.910000000000004L141.58000000000004 33.440000000000005C139.92000000000004 32.900000000000006 138.23000000000005 32.53000000000001 135.84000000000003 32.52C130.63000000000002 32.49 127.02000000000004 34.730000000000004 127.00000000000003 39.34L127.00000000000003 39.42C126.98000000000003 43.7 130.52000000000004 46.03 134.52000000000004 46.050000000000004C137.79000000000005 46.06 140.02000000000004 44.7 141.49000000000004 42.970000000000006L141.48000000000005 43.78000000000001C141.48000000000005 44.87000000000001 142.44000000000005 45.85000000000001 143.85000000000005 45.85000000000001C145.19000000000005 45.86000000000001 146.24000000000004 44.86000000000001 146.25000000000006 43.52000000000001L146.31000000000006 33.02000000000001C146.32000000000005 30.23000000000001 145.61000000000007 27.97000000000001 144.04000000000005 26.42000000000001C142.55000000000004 24.88000000000001 140.17000000000004 24.02000000000001 136.98000000000005 24.000000000000007C134.19000000000005 23.980000000000008 132.13000000000005 24.460000000000008 130.11000000000004 25.210000000000008Z " fill="#ffffff" fill-opacity="1" transform="matrix(1,0,0,1,-107,-24)"></path><path id="SvgjsPath1012" d="M160.37 24C158.23000000000002 23.99 156.11 26 154.97 28.66L154.98 26.48C154.98999999999998 25.1 153.89999999999998 24.01 152.53 24C151.16 23.99 150.1 25.08 150.09 26.45L150 43.34C149.99 44.71 151.08 45.77 152.41 45.78C153.78 45.78 154.88 44.7 154.89 43.370000000000005L154.92 37.06C154.95 32.010000000000005 157.35 29.360000000000003 160.82999999999998 28.770000000000003C161.92 28.580000000000002 162.76999999999998 27.730000000000004 162.77999999999997 26.440000000000005C162.78999999999996 25.030000000000005 161.89999999999998 24.010000000000005 160.36999999999998 24.000000000000004 " fill="#ffffff" fill-opacity="1" transform="matrix(1,0,0,1,-107,-24)"></path><path id="SvgjsPath1013" d="M176.66 24C173.35 23.98 171.35999999999999 25.71 169.97 27.68L169.98 26.63C169.98999999999998 25.259999999999998 168.89999999999998 24.16 167.53 24.15C166.15 24.139999999999997 165.1 25.229999999999997 165.09 26.599999999999998L165 43.489999999999995C164.99 44.87 166.08 45.919999999999995 167.41 45.92999999999999C168.78 45.93999999999999 169.88 44.88999999999999 169.89 43.519999999999996L169.94 33.699999999999996C169.96 30.389999999999997 171.95 28.419999999999995 174.78 28.429999999999996C177.69 28.449999999999996 179.33 30.359999999999996 179.31 33.669999999999995L179.26 43.56999999999999C179.25 44.93999999999999 180.34 45.99999999999999 181.70999999999998 46.00999999999999C183.08999999999997 46.00999999999999 184.14 44.96999999999999 184.14999999999998 43.58999999999999L184.20999999999998 32.19999999999999C184.23999999999998 27.26999999999999 181.46999999999997 24.029999999999987 176.65999999999997 23.99999999999999 " fill="#ffffff" fill-opacity="1" transform="matrix(1,0,0,1,-107,-24)"></path><path id="SvgjsPath1014" d="M203.86 35.27C203.84 38.940000000000005 201.32000000000002 42 197.36 41.980000000000004C193.56 41.96 190.87 38.830000000000005 190.89000000000001 35.120000000000005L190.89000000000001 35.040000000000006C190.91000000000003 31.320000000000007 193.43 28.260000000000005 197.35000000000002 28.28000000000001C201.19000000000003 28.300000000000008 203.88000000000002 31.430000000000007 203.86 35.19000000000001ZM186 35.09L186 35.17C185.97 41.230000000000004 190.75 46.230000000000004 197.25 46.260000000000005C203.84 46.300000000000004 208.71 41.27 208.75 35.21000000000001L208.75 35.13000000000001C208.78 29.03000000000001 204 24.04000000000001 197.45 24.000000000000007C190.91 23.970000000000006 186.03 28.99000000000001 186 35.09Z " fill="#ffffff" fill-opacity="1" transform="matrix(1,0,0,1,-107,-24)"></path><path id="SvgjsPath1015" d="M227.23 25.09C225.94 25.08 225.29 25.919999999999998 224.92 26.77L219.26999999999998 40.96L213.85 26.79C213.45 25.779999999999998 212.76999999999998 25.009999999999998 211.44 25C210.1 24.99 209.01 26.12 209 27.33C209 27.779999999999998 209.16 28.18 209.28 28.54L216.3 44.86C216.86 46.16 217.74 47.01 219.08 47.019999999999996L219.32000000000002 47.019999999999996C220.65000000000003 47.029999999999994 221.54000000000002 46.15 222.12000000000003 44.9L229.32000000000002 28.61C229.44000000000003 28.37 229.60000000000002 27.89 229.60000000000002 27.439999999999998C229.61 26.11 228.57000000000002 25.089999999999996 227.23000000000002 25.089999999999996 " fill="#ffffff" fill-opacity="1" transform="matrix(1,0,0,1,-107,-24)"></path><path id="SvgjsPath1016" d="M252.9 34.41C252.9 34.38999999999999 252.9 34.379999999999995 252.9 34.36C252.9 33 251.8 31.89 250.43 31.89C249.06 31.89 247.95000000000002 33 247.95000000000002 34.36C247.95000000000002 34.49 247.97000000000003 34.62 247.99 34.74L247.99 34.74C247.99 34.910000000000004 248 35.07 248 35.24L248 35.32C248 39.03 245.48 42.12 241.49 42.12C237.66 42.12 234.93 38.989999999999995 234.93 35.239999999999995L234.93 35.16C234.93 31.409999999999997 237.45000000000002 28.319999999999997 241.41 28.319999999999997C241.79999999999998 28.319999999999997 242.18 28.349999999999998 242.54999999999998 28.409999999999997C242.54999999999998 28.409999999999997 243.05999999999997 28.499999999999996 243.24999999999997 28.479999999999997C243.27999999999997 28.479999999999997 243.29999999999998 28.479999999999997 243.31999999999996 28.479999999999997C244.50999999999996 28.479999999999997 245.47999999999996 27.519999999999996 245.47999999999996 26.33C245.47999999999996 25.34 244.80999999999997 24.5 243.89999999999995 24.25L243.89999999999995 24.25L243.79999999999995 24.22C243.77999999999994 24.22 243.76999999999995 24.22 243.74999999999994 24.209999999999997L243.65999999999994 24.189999999999998C242.95999999999995 24.069999999999997 242.23999999999995 23.999999999999996 241.48999999999995 23.999999999999996C234.88999999999996 23.999999999999996 229.99999999999994 29.089999999999996 229.99999999999994 35.239999999999995L229.99999999999994 35.31999999999999C229.99999999999994 41.42999999999999 234.84999999999994 46.43999999999999 241.40999999999994 46.43999999999999C248.03999999999994 46.43999999999999 252.92999999999995 41.349999999999994 252.92999999999995 35.239999999999995L252.92999999999995 35.16C252.92999999999995 34.91 252.91999999999996 34.66 252.89999999999995 34.41 " fill="#ffffff" fill-opacity="1" transform="matrix(1,0,0,1,-107,-24)"></path><path id="SvgjsPath1017" d="M241.52 32.54L241.51000000000002 32.53C240.12000000000003 32.53 239.00000000000003 33.660000000000004 239.00000000000003 35.04C239.00000000000003 36.42 240.12000000000003 37.54 241.51000000000002 37.54C242.89000000000001 37.54 244.01000000000002 36.42 244.01000000000002 35.04C244.01000000000002 35.03 244.01000000000002 35.03 244.01000000000002 35.019999999999996L249.52 27.299999999999997L249.52 27.299999999999997C249.54000000000002 27.269999999999996 249.55 27.229999999999997 249.55 27.189999999999998C249.55 27.089999999999996 249.47 26.999999999999996 249.36 26.999999999999996C249.32000000000002 26.999999999999996 249.28 27.019999999999996 249.24 27.039999999999996L249.24 27.039999999999996Z " fill="#ffffff" fill-opacity="1" transform="matrix(1,0,0,1,-107,-24)"></path></svg>