<svg id="SvgjsSvg1026" xmlns="http://www.w3.org/2000/svg" version="1.1" xmlns:xlink="http://www.w3.org/1999/xlink" xmlns:svgjs="http://svgjs.com/svgjs" width="117" height="29"><defs id="SvgjsDefs1027"></defs><path id="SvgjsPath1028" d="M673.46 35.02C673.4300000000001 33.290000000000006 673.13 31.580000000000002 672.58 29.940000000000005C671.62 27.400000000000006 669.39 25.920000000000005 666.62 26.000000000000004C664.01 26.000000000000004 661.72 27.760000000000005 661.02 30.300000000000004C660.6999999999999 31.460000000000004 660.47 32.660000000000004 660.36 33.86000000000001C660.01 37.86000000000001 659.97 41.88000000000001 660.25 45.88000000000001C660.34 47.55000000000001 660.54 49.21000000000001 661.12 50.78000000000001C661.84 52.95000000000001 663.78 54.48000000000001 666.03 54.67000000000001C668.37 54.96000000000001 670.36 54.23000000000001 671.81 52.260000000000005C672.56 51.2 673.01 49.96000000000001 673.1099999999999 48.67C673.3799999999999 45.910000000000004 673.55 43.14 673.7599999999999 40.370000000000005L673.6399999999999 40.35C673.5799999999999 38.58 673.5599999999998 36.79 673.4599999999999 35.02ZM693.11 54.14C693.51 51.77 693.91 49.46 694.28 47.15C694.35 46.72 694.5 46.589999999999996 694.92 46.589999999999996C695.91 46.629999999999995 696.91 46.62 697.9 46.589999999999996C698.29 46.589999999999996 698.4499999999999 46.68 698.52 47.11C698.86 49.32 699.23 51.519999999999996 699.5799999999999 53.71C699.6399999999999 54.08 699.7599999999999 54.21 700.1199999999999 54.18C700.6899999999999 54.15 701.2699999999999 54.15 701.8599999999999 54.15L704.8 54.15L700.0899999999999 26.599999999999998L695.9499999999999 26.599999999999998L690.93 54.15L693.1099999999999 54.15ZM622.02 26.6L617 54.17C617.58 54.17 618.12 54.13 618.66 54.17C619.06 54.2 619.2099999999999 54.08 619.27 53.660000000000004C619.62 51.480000000000004 620.01 49.300000000000004 620.36 47.11000000000001C620.42 46.70000000000001 620.58 46.59 620.97 46.59C621.97 46.620000000000005 622.96 46.63 623.95 46.59C624.37 46.59 624.5300000000001 46.7 624.59 47.14C624.9300000000001 49.35 625.3000000000001 51.56 625.6800000000001 53.75C625.71 53.91 625.9200000000001 54.15 626.0500000000001 54.16C627.6200000000001 54.19 629.19 54.169999999999995 630.8700000000001 54.169999999999995L626.1700000000001 26.599999999999994ZM733.02 33.87C732.96 32.849999999999994 732.9499999999999 31.88 732.8199999999999 30.929999999999996C732.54 28.759999999999998 731.53 27.079999999999995 729.3799999999999 26.379999999999995C728.5399999999998 26.119999999999994 727.6699999999998 25.999999999999996 726.7899999999998 26.029999999999994C723.8399999999998 26.079999999999995 721.8799999999999 27.549999999999994 721.2599999999999 30.249999999999993C720.5799999999999 33.199999999999996 720.9199999999998 36.03999999999999 722.7199999999999 38.529999999999994C723.92 40.17999999999999 725.2599999999999 41.709999999999994 726.5899999999999 43.25999999999999C727.4499999999999 44.279999999999994 728.2499999999999 45.37999999999999 728.3299999999999 46.74999999999999C728.42 48.29999999999999 728.3699999999999 49.879999999999995 728.3 51.43999999999999C728.28 51.90999999999999 728.1099999999999 52.42999999999999 727.8599999999999 52.81999999999999C727.6699999999998 53.089999999999996 727.2299999999999 53.349999999999994 726.9099999999999 53.339999999999996C726.6199999999999 53.33 726.2499999999999 52.99999999999999 726.0899999999998 52.709999999999994C725.8899999999998 52.36999999999999 725.8099999999998 51.919999999999995 725.7799999999999 51.519999999999996C725.6899999999998 49.87 725.6299999999999 48.23 725.5699999999998 46.589999999999996L725.5699999999998 45.93L720.9399999999998 45.93C720.9799999999998 47 720.9899999999998 48.04 721.0999999999998 49.07C721.4399999999998 52.36 723.0699999999998 54.25 726.0899999999998 54.65C729.2799999999999 55.08 732.1899999999998 53.839999999999996 733.1399999999998 50.44C734.0599999999997 47.169999999999995 733.7599999999998 43.97 731.6499999999997 41.16C730.4599999999997 39.58 729.1499999999997 38.099999999999994 727.8499999999998 36.61C726.8899999999998 35.54 726.0699999999998 34.41 725.9299999999998 32.96C725.8199999999998 31.71 725.8499999999998 30.43 725.8699999999999 29.17C725.8699999999999 28.770000000000003 725.9499999999999 28.3 726.1599999999999 27.98C726.3399999999998 27.69 726.7599999999999 27.39 727.0699999999998 27.38C727.3899999999999 27.369999999999997 727.7799999999999 27.669999999999998 728.0199999999999 27.939999999999998C728.1899999999998 28.139999999999997 728.2399999999999 28.499999999999996 728.2699999999999 28.79C728.3399999999999 29.509999999999998 728.4099999999999 30.22 728.4199999999998 30.939999999999998C728.4499999999998 31.919999999999998 728.4299999999998 32.89 728.4299999999998 33.87ZM676.21 26.6L676.21 54.150000000000006L681.34 54.150000000000006L681.34 40.870000000000005L683.89 40.870000000000005L683.89 54.14L689.03 54.14L689.03 26.59L683.85 26.59L683.85 39L681.34 39L681.34 26.6ZM706.35 26.6L706.35 47.540000000000006C706.35 48.260000000000005 706.39 48.980000000000004 706.46 49.7C706.58 51.68 707.83 53.42 709.6700000000001 54.13C711.35 54.84 713.21 54.940000000000005 714.96 54.42C716.89 53.88 718.08 52.58 718.48 50.61C718.64 49.82 718.7 48.99 718.7 48.19C718.71 41.18 718.71 34.17 718.71 27.159999999999997C718.71 26.979999999999997 718.7 26.789999999999996 718.6800000000001 26.599999999999998L716.58 26.599999999999998L716.5600000000001 27.119999999999997L716.61 35.199999999999996C716.63 39.66 716.69 44.13999999999999 716.69 48.599999999999994C716.69 49.35999999999999 716.57 50.16 716.34 50.88999999999999C715.98 51.99999999999999 715.1 52.459999999999994 713.7800000000001 52.379999999999995C712.7 52.309999999999995 711.9700000000001 51.74999999999999 711.7300000000001 50.62C711.5900000000001 49.94 711.5300000000001 49.239999999999995 711.5300000000001 48.54L711.5200000000001 27.279999999999998L711.5200000000001 26.599999999999998ZM632.43 26.6L632.43 47.32C632.43 48.12 632.4699999999999 48.910000000000004 632.55 49.7C632.65 51.67 633.88 53.39 635.6999999999999 54.11C637.4699999999999 54.88 639.3 54.93 641.1299999999999 54.38C642.9299999999998 53.910000000000004 644.2799999999999 52.400000000000006 644.5599999999998 50.550000000000004C644.7099999999998 49.830000000000005 644.7799999999999 49.080000000000005 644.7799999999999 48.35C644.7899999999998 41.27 644.7899999999998 34.19 644.7899999999998 27.1C644.7899999999998 26.94 644.7699999999999 26.770000000000003 644.7599999999999 26.6L642.6399999999999 26.6L642.6399999999999 29.200000000000003C642.6799999999998 35.75 642.7399999999999 42.300000000000004 642.7499999999999 48.86C642.7399999999999 49.61 642.5999999999999 50.35 642.3299999999999 51.06C641.9499999999999 52.07 641.05 52.47 639.78 52.38C638.8 52.300000000000004 638.1 51.77 637.8399999999999 50.77C637.6899999999999 50.18 637.6099999999999 49.57 637.6099999999999 48.970000000000006L637.5999999999999 27.320000000000007L637.5999999999999 26.60000000000001ZM659.07 26.6L646.5300000000001 26.6L646.5300000000001 28.44L650.2200000000001 28.44L650.2200000000001 54.150000000000006L655.3800000000001 54.150000000000006L655.3800000000001 28.420000000000005L659.0700000000002 28.420000000000005ZM667.64 52.7C667.5699999999999 53.1 667.3199999999999 53.370000000000005 666.87 53.38C666.42 53.39 666.17 53.120000000000005 666.05 52.74C665.93 52.4 665.8499999999999 52.050000000000004 665.8299999999999 51.690000000000005C665.7099999999999 47.67 665.5799999999999 43.660000000000004 665.54 39.650000000000006C665.52 36.790000000000006 665.62 33.93000000000001 665.6999999999999 31.080000000000005C665.7199999999999 30.210000000000004 665.8299999999999 29.340000000000007 665.91 28.480000000000004C665.9399999999999 28.260000000000005 666 28.000000000000004 666.15 27.850000000000005C666.3299999999999 27.640000000000004 666.61 27.370000000000005 666.8299999999999 27.380000000000006C667.0899999999999 27.380000000000006 667.4599999999999 27.620000000000005 667.56 27.860000000000007C667.76 28.270000000000007 667.8599999999999 28.760000000000005 667.88 29.220000000000006C668.02 32.790000000000006 668.13 36.370000000000005 668.25 39.760000000000005C668.15 43.49 668.08 47.040000000000006 667.96 50.57000000000001C667.95 51.28000000000001 667.7900000000001 51.99000000000001 667.64 52.70000000000001ZM698.1 44.85L694.71 44.85L696.37 34.400000000000006L696.51 34.400000000000006ZM621.62 39.61L622.45 34.4L622.58 34.4L624.1800000000001 44.849999999999994L620.7800000000001 44.849999999999994Z " fill="#ffffff" fill-opacity="1" transform="matrix(1,0,0,1,-617,-26)"></path></svg>