<?xml version="1.0" encoding="UTF-8" standalone="no"?>
<svg viewBox="0 0 537 62" version="1.1" xmlns="http://www.w3.org/2000/svg" xmlns:xlink="http://www.w3.org/1999/xlink" xmlns:sketch="http://www.bohemiancoding.com/sketch/ns">
    <!-- Generator: Sketch 3.1.1 (8761) - http://www.bohemiancoding.com/sketch -->
    <title>trustpilot-logo</title>
    <desc>Created with Sketch.</desc>
    <defs>
        <linearGradient x1="49.9106713%" y1="0.267697595%" x2="49.9106713%" y2="99.4369416%" id="linearGradient-1">
            <stop stop-color="#484848" offset="0%"></stop>
            <stop stop-color="#000000" offset="100%"></stop>
        </linearGradient>
    </defs>
    <g id="Page-1" stroke="none" stroke-width="1" fill="none" fill-rule="evenodd" sketch:type="MSPage">
        <g id="trustpilot-logo" sketch:type="MSLayerGroup">
            <g id="Group" sketch:type="MSShapeGroup">
                <path d="M121.8,3.7 C121.8,4.3 121.8,4.8 121.7,5.2 C121.6,5.6 121.5,6 121.4,6.3 C121.3,6.6 121.1,6.8 120.9,6.9 C120.7,7 120.5,7.1 120.2,7.1 L103.2,7.1 L103.2,59.5 C103.2,59.8 103.1,60 103,60.2 C102.9,60.4 102.7,60.5 102.3,60.6 C102,60.7 101.6,60.8 101.1,60.9 C100.6,61 99.9,61 99.2,61 C98.5,61 97.8,61 97.3,60.9 C96.8,60.8 96.4,60.7 96,60.6 C95.7,60.5 95.5,60.3 95.4,60.2 C95.3,60 95.2,59.8 95.2,59.5 L95.2,7.1 L78.2,7.1 C78,7.1 77.7,7 77.5,6.9 C77.3,6.8 77.1,6.6 77,6.3 C76.9,6 76.8,5.7 76.7,5.2 C76.6,4.8 76.6,4.2 76.6,3.7 C76.6,3.1 76.6,2.6 76.7,2.1 C76.8,1.6 76.9,1.3 77,1 C77.1,0.7 77.3,0.5 77.5,0.4 C77.7,0.3 77.9,0.2 78.2,0.2 L120.3,0.2 C120.6,0.2 120.8,0.3 121,0.4 C121.2,0.5 121.4,0.7 121.5,1 C121.6,1.3 121.7,1.6 121.8,2.1 C121.8,2.6 121.8,3.1 121.8,3.7 L121.8,3.7 Z" id="Shape" fill="#231F20"></path>
                <path d="M173.4,59.5 C173.4,59.8 173.4,60 173.2,60.2 C173.1,60.4 172.9,60.5 172.6,60.7 C172.3,60.8 171.9,60.9 171.3,61 C170.7,61.1 170,61.1 169.1,61.1 C168.3,61.1 167.6,61.1 167.1,61 C166.6,60.9 166.2,60.8 165.9,60.7 C165.6,60.6 165.3,60.4 165.2,60.1 C165,59.9 164.9,59.5 164.7,59.2 L159.1,44.9 C158.4,43.3 157.8,41.8 157.1,40.4 C156.4,39 155.6,37.9 154.6,36.9 C153.6,35.9 152.5,35.2 151.2,34.6 C149.9,34.1 148.3,33.8 146.5,33.8 L141.1,33.8 L141.1,59.6 C141.1,59.9 141,60.1 140.9,60.3 C140.8,60.5 140.5,60.6 140.2,60.7 C139.9,60.8 139.5,60.9 139,61 C138.5,61.1 137.8,61.1 137.1,61.1 C136.3,61.1 135.7,61.1 135.2,61 C134.7,60.9 134.3,60.8 134,60.7 C133.7,60.6 133.5,60.4 133.3,60.3 C133.2,60.1 133.1,59.9 133.1,59.6 L133.1,3.6 C133.1,2.4 133.4,1.5 134.1,1 C134.7,0.5 135.4,0.3 136.1,0.3 L149,0.3 C150.5,0.3 151.8,0.3 152.8,0.4 C153.8,0.5 154.7,0.6 155.5,0.7 C157.8,1.1 159.9,1.7 161.7,2.6 C163.5,3.5 165,4.6 166.2,5.9 C167.4,7.2 168.3,8.8 168.9,10.5 C169.5,12.2 169.8,14.1 169.8,16.2 C169.8,18.2 169.5,20 169,21.7 C168.5,23.3 167.7,24.7 166.6,25.9 C165.6,27.1 164.3,28.2 162.9,29.1 C161.5,30 159.9,30.8 158.1,31.4 C159.1,31.8 160,32.4 160.8,33.1 C161.6,33.8 162.4,34.6 163.1,35.5 C163.8,36.4 164.5,37.5 165.1,38.7 C165.7,39.9 166.3,41.3 167,42.8 L172.4,56.1 C172.8,57.2 173.1,58 173.2,58.5 C173.3,58.9 173.4,59.2 173.4,59.5 L173.4,59.5 Z M161.3,17 C161.3,14.6 160.8,12.6 159.7,11 C158.6,9.4 156.9,8.2 154.4,7.5 C153.6,7.3 152.7,7.1 151.8,7 C150.8,6.9 149.5,6.9 147.9,6.9 L141.1,6.9 L141.1,27.3 L149,27.3 C151.1,27.3 152.9,27 154.5,26.5 C156,26 157.3,25.3 158.4,24.3 C159.4,23.4 160.2,22.3 160.7,21.1 C161.1,19.8 161.3,18.5 161.3,17 L161.3,17 Z" id="Shape" fill="#231F20"></path>
                <path d="M227.3,38.1 C227.3,41.7 226.8,44.9 225.7,47.8 C224.6,50.6 223.1,53 221.2,55 C219.2,57 216.8,58.4 214,59.5 C211.2,60.5 208,61 204.4,61 C201.1,61 198.1,60.5 195.4,59.6 C192.7,58.7 190.4,57.2 188.5,55.4 C186.6,53.5 185.1,51.2 184,48.4 C183,45.6 182.4,42.4 182.4,38.7 L182.4,1.7 C182.4,1.5 182.5,1.2 182.6,1.1 C182.7,0.9 182.9,0.8 183.2,0.7 C183.5,0.6 183.9,0.5 184.4,0.4 C184.9,0.3 185.5,0.3 186.3,0.3 C187,0.3 187.7,0.3 188.2,0.4 C188.7,0.5 189.1,0.6 189.4,0.7 C189.7,0.8 189.9,1 190,1.1 C190.1,1.3 190.2,1.5 190.2,1.7 L190.2,37.7 C190.2,40.5 190.5,42.9 191.2,44.9 C191.9,47 192.9,48.7 194.1,50 C195.4,51.4 196.9,52.4 198.7,53.1 C200.5,53.8 202.5,54.1 204.8,54.1 C207.1,54.1 209.1,53.8 210.9,53.1 C212.7,52.4 214.2,51.4 215.5,50.1 C216.7,48.7 217.7,47.1 218.3,45.1 C219,43.1 219.3,40.8 219.3,38.1 L219.3,1.7 C219.3,1.5 219.4,1.2 219.5,1.1 C219.6,0.9 219.8,0.8 220.1,0.7 C220.4,0.6 220.8,0.5 221.3,0.4 C221.8,0.3 222.4,0.3 223.2,0.3 C223.9,0.3 224.6,0.3 225.1,0.4 C225.6,0.5 226,0.6 226.3,0.7 C226.6,0.8 226.8,1 226.9,1.1 C227,1.3 227.1,1.5 227.1,1.7 L227.1,38.1 L227.3,38.1 Z" id="Shape" fill="#231F20"></path>
                <path d="M272.6,43.5 C272.6,46.3 272.1,48.7 271.1,50.9 C270.1,53.1 268.7,54.9 266.9,56.4 C265.1,57.9 263,59 260.5,59.8 C258,60.6 255.4,60.9 252.6,60.9 C250.6,60.9 248.8,60.7 247.1,60.4 C245.4,60.1 243.9,59.7 242.6,59.2 C241.3,58.7 240.2,58.2 239.3,57.7 C238.4,57.2 237.8,56.7 237.4,56.4 C237,56 236.8,55.6 236.6,55 C236.4,54.4 236.3,53.7 236.3,52.7 C236.3,52 236.3,51.5 236.4,51 C236.5,50.6 236.5,50.2 236.7,49.9 C236.8,49.6 237,49.4 237.2,49.3 C237.4,49.2 237.6,49.1 237.8,49.1 C238.2,49.1 238.8,49.4 239.6,49.9 C240.4,50.4 241.4,51 242.6,51.6 C243.8,52.2 245.3,52.8 247,53.3 C248.7,53.8 250.7,54.1 253,54.1 C254.7,54.1 256.3,53.9 257.7,53.4 C259.1,52.9 260.3,52.3 261.4,51.5 C262.4,50.7 263.2,49.6 263.7,48.4 C264.2,47.2 264.5,45.8 264.5,44.3 C264.5,42.6 264.1,41.2 263.4,40 C262.6,38.8 261.6,37.8 260.4,36.9 C259.1,36 257.7,35.2 256.1,34.4 C254.5,33.7 252.9,32.9 251.2,32.1 C249.5,31.3 247.9,30.5 246.3,29.5 C244.7,28.6 243.3,27.5 242.1,26.2 C240.8,24.9 239.8,23.4 239.1,21.7 C238.3,20 237.9,17.9 237.9,15.5 C237.9,13 238.3,10.8 239.3,8.9 C240.2,7 241.4,5.3 243,4 C244.6,2.7 246.5,1.7 248.7,1 C250.9,0.3 253.3,2.84217094e-14 255.8,2.84217094e-14 C257.1,2.84217094e-14 258.4,0.1 259.7,0.3 C261,0.5 262.3,0.8 263.4,1.2 C264.6,1.6 265.6,2 266.5,2.5 C267.4,3 268,3.4 268.3,3.6 C268.6,3.9 268.8,4.1 268.9,4.3 C269,4.5 269.1,4.7 269.1,4.9 C269.2,5.2 269.2,5.5 269.2,5.8 C269.2,6.2 269.3,6.6 269.3,7.2 C269.3,7.8 269.3,8.2 269.2,8.7 C269.2,9.1 269.1,9.5 269,9.8 C268.9,10.1 268.8,10.3 268.6,10.4 C268.4,10.5 268.2,10.6 268,10.6 C267.7,10.6 267.1,10.4 266.4,10 C265.7,9.6 264.8,9.1 263.8,8.6 C262.8,8.1 261.5,7.6 260.1,7.1 C258.7,6.7 257.1,6.4 255.3,6.4 C253.7,6.4 252.2,6.6 251,7.1 C249.8,7.5 248.8,8.1 248,8.9 C247.2,9.6 246.6,10.5 246.2,11.5 C245.8,12.5 245.6,13.6 245.6,14.7 C245.6,16.3 246,17.7 246.7,18.9 C247.5,20.1 248.5,21.1 249.7,22 C251,22.9 252.4,23.7 254,24.5 C255.6,25.3 257.3,26 258.9,26.8 C260.6,27.6 262.2,28.4 263.8,29.3 C265.4,30.2 266.8,31.3 268.1,32.6 C269.4,33.9 270.4,35.4 271.1,37.1 C272.2,39.2 272.6,41.2 272.6,43.5 L272.6,43.5 Z" id="Shape" fill="#231F20"></path>
                <path d="M322.6,3.7 C322.6,4.3 322.6,4.8 322.5,5.2 C322.4,5.6 322.3,6 322.2,6.3 C322.1,6.6 321.9,6.8 321.7,6.9 C321.5,7 321.3,7.1 321,7.1 L304,7.1 L304,59.5 C304,59.7 303.9,60 303.8,60.2 C303.7,60.4 303.5,60.5 303.1,60.6 C302.8,60.7 302.4,60.8 301.9,60.9 C301.4,61 300.7,61 300,61 C299.2,61 298.6,61 298.1,60.9 C297.6,60.8 297.1,60.7 296.8,60.6 C296.5,60.5 296.3,60.3 296.1,60.2 C296,60 295.9,59.8 295.9,59.5 L295.9,7 L278.9,7 C278.7,7 278.4,6.9 278.2,6.8 C278,6.7 277.8,6.5 277.7,6.2 C277.6,5.9 277.5,5.6 277.4,5.1 C277.3,4.7 277.3,4.2 277.3,3.6 C277.3,3 277.3,2.5 277.4,2 C277.5,1.5 277.6,1.2 277.7,0.9 C277.8,0.6 278,0.4 278.2,0.3 C278.4,0.2 278.6,0.1 278.9,0.1 L320.9,0.1 C321.1,0.1 321.4,0.2 321.6,0.3 C321.8,0.4 322,0.6 322.1,0.9 C322.2,1.2 322.3,1.5 322.4,2 C322.5,2.6 322.6,3.1 322.6,3.7 L322.6,3.7 Z" id="Shape" fill="#231F20"></path>
                <path d="M369.3,17.9 C369.3,20.9 368.8,23.7 367.8,26.1 C366.8,28.5 365.4,30.6 363.5,32.3 C361.6,34 359.4,35.3 356.7,36.3 C354,37.2 350.8,37.7 347,37.7 L340.1,37.7 L340.1,59.5 C340.1,59.8 340,60 339.9,60.2 C339.8,60.4 339.5,60.5 339.2,60.6 C338.9,60.7 338.5,60.8 338,60.9 C337.5,61 336.8,61 336.1,61 C335.3,61 334.7,61 334.2,60.9 C333.7,60.8 333.3,60.7 333,60.6 C332.7,60.5 332.5,60.3 332.3,60.2 C332.2,60 332.1,59.8 332.1,59.5 L332.1,3.7 C332.1,2.5 332.4,1.6 333.1,1 C333.8,0.5 334.5,0.2 335.3,0.2 L348.2,0.2 C349.5,0.2 350.8,0.3 352,0.4 C353.2,0.5 354.6,0.7 356.2,1.1 C357.8,1.5 359.5,2.1 361.2,3.1 C362.9,4.1 364.3,5.3 365.5,6.7 C366.7,8.1 367.6,9.8 368.2,11.7 C369,13.6 369.3,15.7 369.3,17.9 L369.3,17.9 Z M360.8,18.6 C360.8,16.1 360.3,14.1 359.4,12.4 C358.5,10.7 357.3,9.5 356,8.7 C354.6,7.9 353.2,7.4 351.8,7.2 C350.3,7 348.9,6.9 347.6,6.9 L340.2,6.9 L340.2,31.2 L347.4,31.2 C349.8,31.2 351.8,30.9 353.4,30.3 C355,29.7 356.4,28.8 357.4,27.7 C358.5,26.6 359.3,25.3 359.9,23.7 C360.5,22.1 360.8,20.4 360.8,18.6 L360.8,18.6 Z" id="Shape" fill="#929497"></path>
                <path d="M388.3,59.5 C388.3,59.7 388.2,60 388.1,60.1 C388,60.3 387.8,60.4 387.4,60.5 C387.1,60.6 386.7,60.7 386.2,60.8 C385.7,60.9 385,60.9 384.3,60.9 C383.6,60.9 382.9,60.9 382.4,60.8 C381.9,60.7 381.4,60.6 381.1,60.5 C380.8,60.4 380.6,60.2 380.4,60.1 C380.3,59.9 380.2,59.7 380.2,59.5 L380.2,1.7 C380.2,1.4 380.3,1.2 380.4,1 C380.5,0.8 380.8,0.7 381.1,0.6 C381.4,0.5 381.8,0.4 382.3,0.3 C382.8,0.2 383.4,0.2 384.1,0.2 C384.9,0.2 385.5,0.2 386,0.3 C386.5,0.4 386.9,0.5 387.2,0.6 C387.5,0.7 387.7,0.9 387.9,1 C388,1.2 388.1,1.4 388.1,1.7 L388.1,59.5 L388.3,59.5 Z" id="Shape" fill="#929497"></path>
                <path d="M434.5,57.5 C434.5,58.1 434.5,58.6 434.4,59.1 C434.3,59.5 434.2,59.9 434.1,60.2 C434,60.5 433.8,60.7 433.6,60.8 C433.4,60.9 433.2,61 432.9,61 L406.2,61 C405.5,61 404.8,60.8 404.2,60.3 C403.6,59.8 403.2,59 403.2,57.8 L403.2,1.8 C403.2,1.6 403.3,1.3 403.4,1.1 C403.5,0.9 403.7,0.8 404,0.7 C404.3,0.6 404.7,0.5 405.3,0.4 C405.8,0.3 406.5,0.3 407.2,0.3 C408,0.3 408.6,0.3 409.1,0.4 C409.6,0.5 410,0.6 410.3,0.7 C410.6,0.8 410.8,1 411,1.1 C411.1,1.3 411.2,1.5 411.2,1.8 L411.2,54 L432.9,54 C433.2,54 433.4,54.1 433.6,54.2 C433.8,54.3 434,54.5 434.1,54.8 C434.2,55.1 434.3,55.4 434.4,55.9 C434.5,56.3 434.5,56.9 434.5,57.5 L434.5,57.5 Z" id="Shape" fill="#929497"></path>
                <path d="M489.3,29.9 C489.3,34.7 488.7,39 487.6,42.8 C486.5,46.6 484.8,49.9 482.6,52.6 C480.4,55.3 477.6,57.3 474.2,58.8 C470.8,60.2 466.9,61 462.4,61 C458,61 454.1,60.3 450.9,59 C447.7,57.7 445,55.8 442.9,53.2 C440.8,50.7 439.2,47.6 438.2,43.8 C437.2,40.1 436.6,35.8 436.6,30.9 C436.6,26.3 437.2,22 438.3,18.2 C439.4,14.4 441.1,11.2 443.4,8.5 C445.6,5.8 448.4,3.8 451.8,2.4 C455.2,1 459.1,0.2 463.6,0.2 C467.9,0.2 471.7,0.9 474.9,2.2 C478.1,3.5 480.8,5.4 482.9,7.9 C485,10.4 486.6,13.5 487.7,17.2 C488.8,20.9 489.3,25.1 489.3,29.9 L489.3,29.9 Z M481,30.4 C481,27.1 480.7,24 480.1,21.1 C479.5,18.2 478.5,15.8 477.1,13.6 C475.7,11.5 473.9,9.8 471.6,8.7 C469.3,7.5 466.4,6.9 463.1,6.9 C459.7,6.9 456.9,7.5 454.6,8.8 C452.3,10.1 450.4,11.8 449,13.9 C447.6,16 446.5,18.5 445.9,21.3 C445.3,24.1 445,27.1 445,30.2 C445,33.7 445.3,36.8 445.9,39.8 C446.5,42.7 447.4,45.2 448.8,47.3 C450.2,49.4 452,51.1 454.3,52.2 C456.6,53.4 459.5,54 462.9,54 C466.3,54 469.2,53.4 471.5,52.1 C473.8,50.8 475.7,49.1 477.1,46.9 C478.5,44.7 479.5,42.2 480.1,39.4 C480.7,36.6 481,33.6 481,30.4 L481,30.4 Z" id="Shape" fill="#929497"></path>
                <path d="M536.2,3.7 C536.2,4.3 536.2,4.8 536.1,5.2 C536,5.6 535.9,6 535.8,6.3 C535.7,6.6 535.5,6.8 535.3,6.9 C535.1,7 534.9,7.1 534.6,7.1 L517.6,7.1 L517.6,59.5 C517.6,59.8 517.5,60 517.4,60.2 C517.3,60.4 517.1,60.5 516.8,60.6 C516.5,60.7 516.1,60.8 515.6,60.9 C515.1,61 514.4,61 513.7,61 C513,61 512.3,61 511.8,60.9 C511.3,60.8 510.8,60.7 510.5,60.6 C510.2,60.5 510,60.3 509.8,60.2 C509.7,60 509.6,59.8 509.6,59.5 L509.6,7.1 L492.6,7.1 C492.4,7.1 492.1,7 491.9,6.9 C491.7,6.8 491.5,6.6 491.4,6.3 C491.3,6 491.2,5.7 491.1,5.2 C491,4.8 491,4.2 491,3.7 C491,3.1 491,2.6 491.1,2.1 C491.2,1.6 491.3,1.3 491.4,1 C491.5,0.7 491.7,0.5 491.9,0.4 C492.1,0.3 492.3,0.2 492.6,0.2 L534.7,0.2 C534.9,0.2 535.2,0.3 535.4,0.4 C535.6,0.5 535.8,0.7 535.9,1 C536,1.3 536.1,1.6 536.2,2.1 C536.2,2.6 536.2,3.1 536.2,3.7 L536.2,3.7 Z" id="Shape" fill="#929497"></path>
                <path d="M0.6,1.3 L0.6,27 C0.6,27 20,36.3 29.9,52.8 C29.9,52.8 34.3,16.2 58.7,1.3 L0.6,1.3 L0.6,1.3 Z" id="Shape" fill="#F9A21E"></path>
                <path d="M0.5,48.1 L0.5,59.5 L26.6,59.5 C26.6,59.5 16.7,48.9 0.5,48.1 L0.5,48.1 Z M33.7,59.5 L58.7,59.5 L58.7,26.3 C44.5,30.1 33.7,59.5 33.7,59.5 L33.7,59.5 Z" id="Shape" fill="#F9A21E"></path>
                <g transform="translate(1.000000, 1.000000)" id="Shape" fill="url(#linearGradient-1)">
                    <path d="M28.8,51.8 C19,35.2 -0.4,26 -0.4,26 L-0.4,47.2 C15.7,48 25.7,58.6 25.7,58.6 L32.7,58.6 C32.7,58.6 43.5,29.2 57.7,25.4 L57.7,0.4 L57.6,0.4 C33.2,15.3 28.8,51.8 28.8,51.8 L28.8,51.8 Z"></path>
                </g>
            </g>
        </g>
    </g>
</svg>
