<svg id="SvgjsSvg1019" xmlns="http://www.w3.org/2000/svg" version="1.1" xmlns:xlink="http://www.w3.org/1999/xlink" xmlns:svgjs="http://svgjs.com/svgjs" width="32" height="32"><defs id="SvgjsDefs1020"><clipPath id="SvgjsClipPath1024"><path id="SvgjsPath1023" d="M341 148C341 139.16344 348.16344 132 357 132C365.83656 132 373 139.16344 373 148C373 156.83656 365.83656 164 357 164C348.16344 164 341 156.83656 341 148Z " fill="#ffffff"></path></clipPath></defs><path id="SvgjsPath1021" d="M341 148C341 139.16344 348.16344 132 357 132C365.83656 132 373 139.16344 373 148C373 156.83656 365.83656 164 357 164C348.16344 164 341 156.83656 341 148Z " fill="#2ecc71" fill-opacity="1" transform="matrix(1,0,0,1,-341,-132)"></path><path id="SvgjsPath1022" d="M341 148C341 139.16344 348.16344 132 357 132C365.83656 132 373 139.16344 373 148C373 156.83656 365.83656 164 357 164C348.16344 164 341 156.83656 341 148Z " fill-opacity="0" fill="#ffffff" stroke-dasharray="0" stroke-linejoin="miter" stroke-linecap="butt" stroke-opacity="1" stroke="#2ecc71" stroke-miterlimit="50" stroke-width="4" clip-path="url(&quot;#SvgjsClipPath1024&quot;)" transform="matrix(1,0,0,1,-341,-132)"></path><path id="SvgjsPath1025" d="M355.2 150.95L352.05 147.79999999999998L351 148.85L355.2 153.04999999999998L364.2 144.04999999999998L363.15 142.99999999999997L355.2 150.94999999999996Z " fill="#ffffff" fill-opacity="1" transform="matrix(1,0,0,1,-341,-132)"></path></svg>