<svg id="SvgjsSvg1030" xmlns="http://www.w3.org/2000/svg" version="1.1" xmlns:xlink="http://www.w3.org/1999/xlink" xmlns:svgjs="http://svgjs.com/svgjs" width="24" height="24"><defs id="SvgjsDefs1031"><clipPath id="SvgjsClipPath1034"><path id="SvgjsPath1033" d="M661 672C659.9 672 659 672.9 659 674L659 690C659 691.1 659.9 692 661 692L671 692C672.1 692 673 691.1 673 690L673 674C673 672.9 672.1 672 671 672Z " fill="#ffffff"></path></clipPath></defs><path id="SvgjsPath1032" d="M661 672C659.9 672 659 672.9 659 674L659 690C659 691.1 659.9 692 661 692L671 692C672.1 692 673 691.1 673 690L673 674C673 672.9 672.1 672 671 672Z " fill-opacity="0" fill="#ffffff" stroke-dasharray="0" stroke-linejoin="miter" stroke-linecap="butt" stroke-opacity="1" stroke="#535353" stroke-miterlimit="50" stroke-width="3" clip-path="url(&quot;#SvgjsClipPath1034&quot;)" transform="matrix(1,0,0,1,-654,-670)"></path><path id="SvgjsPath1035" d="M664 685L662 688L662 689L670 689L670 688L668 685Z " fill="#535353" fill-opacity="1" transform="matrix(1,0,0,1,-654,-670)"></path><path id="SvgjsPath1036" d="M670 675L670 679L662 679L662 675Z " fill="#535353" fill-opacity="1" transform="matrix(1,0,0,1,-654,-670)"></path><path id="SvgjsPath1037" d="M670 680L670 686.02L668 683Z " fill="#535353" fill-opacity="1" transform="matrix(1,0,0,1,-654,-670)"></path><path id="SvgjsPath1038" d="M662 680L662 686.02L664 683Z " fill="#535353" fill-opacity="1" transform="matrix(1,0,0,1,-654,-670)"></path><path id="SvgjsPath1039" d="M675.81689 682.00351L676.83989 680.90648L673.1831199999999 677.49649L672.1601199999999 678.59352Z " fill="#535353" fill-opacity="1" transform="matrix(1,0,0,1,-654,-670)"></path><path id="SvgjsPath1040" d="M659.83988 678.59352L658.81688 677.49649L655.1601099999999 680.90648L656.1831099999999 682.00351Z " fill="#535353" fill-opacity="1" transform="matrix(1,0,0,1,-654,-670)"></path></svg>