<svg id="SvgjsSvg1067" xmlns="http://www.w3.org/2000/svg" version="1.1" xmlns:xlink="http://www.w3.org/1999/xlink" xmlns:svgjs="http://svgjs.com/svgjs" width="24" height="24"><defs id="SvgjsDefs1068"><clipPath id="SvgjsClipPath1071"><path id="SvgjsPath1070" d="M841 672C839.9 672 839 672.9 839 674L839 690C839 691.1 839.9 692 841 692L851 692C852.1 692 853 691.1 853 690L853 674C853 672.9 852.1 672 851 672Z " fill="#ffffff"></path></clipPath></defs><path id="SvgjsPath1069" d="M841 672C839.9 672 839 672.9 839 674L839 690C839 691.1 839.9 692 841 692L851 692C852.1 692 853 691.1 853 690L853 674C853 672.9 852.1 672 851 672Z " fill-opacity="0" fill="#ffffff" stroke-dasharray="0" stroke-linejoin="miter" stroke-linecap="butt" stroke-opacity="1" stroke="#535353" stroke-miterlimit="50" stroke-width="3" clip-path="url(&quot;#SvgjsClipPath1071&quot;)" transform="matrix(1,0,0,1,-834,-670)"></path><path id="SvgjsPath1072" d="M844 685L842 688L842 689L850 689L850 688L848 685Z " fill="#535353" fill-opacity="1" transform="matrix(1,0,0,1,-834,-670)"></path><path id="SvgjsPath1073" d="M850 675L850 679L842 679L842 675Z " fill="#535353" fill-opacity="1" transform="matrix(1,0,0,1,-834,-670)"></path><path id="SvgjsPath1074" d="M850 680L850 686.02L848 683Z " fill="#535353" fill-opacity="1" transform="matrix(1,0,0,1,-834,-670)"></path><path id="SvgjsPath1075" d="M842 680L842 686.02L844 683Z " fill="#535353" fill-opacity="1" transform="matrix(1,0,0,1,-834,-670)"></path><path id="SvgjsPath1076" d="M855.81689 682.00351L856.83989 680.90648L853.1831199999999 677.49649L852.1601199999999 678.59352Z " fill="#535353" fill-opacity="1" transform="matrix(1,0,0,1,-834,-670)"></path><path id="SvgjsPath1077" d="M839.83988 678.59352L838.81688 677.49649L835.1601099999999 680.90648L836.1831099999999 682.00351Z " fill="#535353" fill-opacity="1" transform="matrix(1,0,0,1,-834,-670)"></path><path id="SvgjsPath1078" d="M855.81689 688.00351L856.83989 686.90648L853.1831199999999 683.49649L852.1601199999999 684.59352Z " fill="#535353" fill-opacity="1" transform="matrix(1,0,0,1,-834,-670)"></path><path id="SvgjsPath1079" d="M839.83988 684.59352L838.81688 683.49649L835.1601099999999 686.90648L836.1831099999999 688.00351Z " fill="#535353" fill-opacity="1" transform="matrix(1,0,0,1,-834,-670)"></path></svg>